<svg width="40" height="40" viewBox="0 0 40 40" fill="none" xmlns="http://www.w3.org/2000/svg">
<path d="M33.8117 36.7983V39.4075C33.8117 39.7341 33.5045 40 33.1271 40H6.8569C6.47953 40 6.17235 39.7341 6.17235 39.4075V36.7983C6.17674 35.8165 7.09599 35.0189 8.2325 35.017H31.7518C32.8882 35.0189 33.8073 35.8165 33.8117 36.7983ZM37.9078 15.2506L36.9008 15.2525V14.6334C36.9008 9.40548 33.6779 4.5747 28.4451 1.95975C23.2147 -0.653251 16.7689 -0.653251 11.5382 1.95975C6.30558 4.57465 3.08247 9.40548 3.08247 14.6334V15.2506L2.05352 15.2525C0.91926 15.2544 0 16.0519 0 17.0338V22.97C0 23.9518 0.91926 24.7494 2.05352 24.7513H3.07809V32.0337C3.07809 32.3603 3.38305 32.6262 3.76263 32.6262H6.27912H6.27693C6.55776 33.4541 7.43315 34.0257 8.43138 34.0295H10.9698C12.216 34.0295 13.2273 33.1541 13.2273 32.0736C13.2273 30.9949 12.2159 30.1195 10.9698 30.1195H8.43138C7.47045 30.1233 6.61696 30.6532 6.30765 31.4413H4.44717V24.751H4.78065V15.2523H4.44059V14.6332C4.44059 9.83071 7.40023 5.39269 12.2071 2.99067C17.0141 0.588452 22.9336 0.588452 27.7403 2.99067C32.5472 5.39288 35.5068 9.83066 35.5068 14.6332V15.2504L35.2018 15.2523V24.751H37.9465C39.0807 24.7491 40 23.9515 40 22.9697V17.0335C40 16.5587 39.7806 16.1048 39.3923 15.7706C39.004 15.4364 38.4774 15.2484 37.9289 15.2522L37.9078 15.2506ZM15.7225 15.4785L11.894 15.4804C11.8326 15.4785 11.7734 15.4994 11.7295 15.5354C11.6856 15.5734 11.6615 15.6247 11.6615 15.6779V18.9897C11.6637 19.0998 11.7668 19.1872 11.894 19.1872H15.7445C15.8695 19.1834 15.9704 19.0979 15.9726 18.9897V15.6779C15.9726 15.5677 15.8695 15.4804 15.7445 15.4804L15.7225 15.4785ZM24.4983 28.8775L27.8046 23.8129L12.153 23.8148L15.4593 28.8794L24.4983 28.8775ZM28.0614 15.4785L24.2395 15.4804C24.1144 15.4804 24.0113 15.5677 24.0113 15.6779V18.9897C24.0135 19.0979 24.1144 19.1834 24.2395 19.1872H28.0899C28.2171 19.1872 28.3203 19.0998 28.3225 18.9897V15.6779C28.3225 15.6247 28.2983 15.5734 28.2544 15.5354C28.2106 15.4994 28.1513 15.4785 28.0899 15.4804L28.0614 15.4785ZM33.8116 12.913V27.0908C33.8072 28.0744 32.8879 28.872 31.7514 28.8739H26.1001L29.6104 23.5113C29.7311 23.3271 29.7311 23.103 29.6104 22.9188C29.4897 22.7384 29.266 22.6264 29.0246 22.6245H10.977C10.7356 22.6264 10.5119 22.7384 10.3912 22.9188C10.2705 23.103 10.2705 23.3271 10.3912 23.5113L13.9015 28.8739H8.23216C7.09571 28.872 6.1764 28.0745 6.17202 27.0908V12.913C6.17641 11.9293 7.09566 11.1317 8.23216 11.1298H31.7514C32.8879 11.1317 33.8072 11.9293 33.8116 12.913ZM17.3416 15.6779C17.3416 14.9126 16.6264 14.2916 15.7444 14.2897H11.894C11.0098 14.2897 10.2924 14.9107 10.2924 15.6779V18.9897C10.2924 19.755 11.0098 20.376 11.894 20.376H15.7444C16.6264 20.3741 17.3416 19.7531 17.3416 18.9897V15.6779ZM29.6913 15.6779C29.6913 14.9107 28.9739 14.2897 28.0897 14.2897H24.2393C23.3573 14.2916 22.642 14.9125 22.642 15.6779V18.9897C22.642 19.7531 23.3572 20.3741 24.2393 20.376H28.0897C28.5131 20.376 28.9212 20.2298 29.2217 19.9696C29.5223 19.7094 29.6912 19.3562 29.6912 18.9897L29.6913 15.6779ZM25.0533 30.0647H14.9306V33.8323H25.0516L25.0533 30.0647Z" fill="#2F99AE"/>
</svg>
