<svg width="40" height="40" viewBox="0 0 40 40" fill="none" xmlns="http://www.w3.org/2000/svg">
<path d="M32.9857 14C32.4515 14 31.9391 14.2133 31.5614 14.593C31.1836 14.9726 30.9713 15.4875 30.9713 16.0244V25.1985C30.9713 25.7354 31.1836 26.2503 31.5614 26.63C31.9391 27.0096 32.4515 27.2228 32.9857 27.2228C33.5199 27.2228 34.0322 27.0096 34.41 26.63C34.7877 26.2503 35 25.7354 35 25.1985V16.0244C35 15.7585 34.9479 15.4953 34.8466 15.2496C34.7454 15.0041 34.5971 14.7808 34.41 14.593C34.2229 14.405 34.0009 14.2558 33.7565 14.1542C33.5122 14.0523 33.2501 14 32.9857 14ZM7.01429 14C6.48006 14 5.96773 14.2133 5.58997 14.593C5.21222 14.9726 5 15.4875 5 16.0244V25.1985C5 25.7354 5.21222 26.2503 5.58997 26.63C5.96773 27.0096 6.48006 27.2228 7.01429 27.2228C7.54849 27.2228 8.06085 27.0096 8.43859 26.63C8.81633 26.2503 9.0286 25.7354 9.0286 25.1985V16.0244C9.0286 15.4875 8.81633 14.9726 8.43859 14.593C8.06085 14.2133 7.54849 14 7.01429 14ZM10.4857 14V27.7828C10.4857 28.3939 10.7273 28.98 11.1572 29.4122C11.5873 29.8443 12.1705 30.0871 12.7785 30.0871H14.2357V34.9756C14.2357 35.5125 14.4479 36.0274 14.8256 36.407C15.2034 36.7867 15.7157 37 16.2499 37C16.7841 37 17.2965 36.7867 17.6742 36.407C18.0521 36.0274 18.2643 35.5125 18.2643 34.9756V30.0871H21.7357V34.9756C21.7357 35.5125 21.948 36.0274 22.3257 36.407C22.7034 36.7867 23.2158 37 23.75 37C24.2842 37 24.7966 36.7867 25.1743 36.407C25.5521 36.0274 25.7642 35.5125 25.7642 34.9756V30.0871H27.2214C27.8295 30.0871 28.4127 29.8443 28.8427 29.4122C29.2727 28.98 29.5142 28.3939 29.5142 27.7828V14H10.4857Z" fill="#46D3D4"/>
<path d="M29.7432 11.1943C29.1137 8.96557 27.717 7.06544 25.8277 5.86723L25.5068 5.66408L25.1644 5.48349L25.5495 4.78376L26.6836 2.52653C26.705 2.46222 26.7062 2.39229 26.6869 2.3272C26.6677 2.2621 26.6289 2.20534 26.5765 2.16537H26.4268C26.3722 2.16796 26.3188 2.18351 26.2706 2.21087C26.2225 2.23821 26.1807 2.27667 26.1486 2.32338L24.9932 4.4226L24.6295 5.12235L24.2872 4.96434L23.9235 4.8289C21.706 4.01705 19.294 4.01705 17.0765 4.8289L16.7343 4.96434L16.3705 5.12235L16.0068 4.4226L14.8514 2.16537C14.8317 2.12832 14.8053 2.09572 14.7737 2.06943C14.7421 2.04313 14.7059 2.02367 14.6671 2.01214C14.6284 2.00062 14.5879 1.99725 14.5479 2.00224C14.5079 2.00723 14.4693 2.02049 14.4341 2.04124C14.3989 2.06198 14.3681 2.08983 14.3432 2.12317C14.3182 2.15653 14.2998 2.19472 14.2889 2.2356C14.278 2.27647 14.2748 2.31921 14.2796 2.36139C14.2842 2.40356 14.2968 2.44434 14.3164 2.48139L15.4505 4.73861L15.8356 5.43835L15.4932 5.61893L15.1723 5.82208C13.274 7.02535 11.8814 8.94634 11.2782 11.1943C11.1112 11.7808 11.0177 12.388 11 13H30C29.9789 12.3899 29.8929 11.7841 29.7432 11.1943ZM16.2208 9.99798C16.0514 9.99798 15.886 9.94503 15.7453 9.84575C15.6045 9.74662 15.4948 9.60549 15.4301 9.44054C15.3652 9.27558 15.3483 9.0941 15.3813 8.91885C15.4143 8.74373 15.4958 8.58284 15.6156 8.45661C15.7352 8.33039 15.8877 8.24439 16.0537 8.20958C16.2197 8.17464 16.3919 8.19252 16.5483 8.26091C16.7046 8.32917 16.8383 8.44496 16.9324 8.5934C17.0263 8.74197 17.0765 8.91654 17.0765 9.09505C17.0765 9.33449 16.9864 9.56419 16.8259 9.73348C16.6655 9.90277 16.4477 9.99798 16.2208 9.99798ZM24.7792 9.99798C24.61 9.99798 24.4446 9.94503 24.3039 9.84575C24.163 9.74662 24.0534 9.60549 23.9886 9.44054C23.9239 9.27558 23.9069 9.0941 23.9399 8.91885C23.9729 8.74373 24.0544 8.58284 24.1741 8.45661C24.2938 8.33039 24.4464 8.24439 24.6123 8.20958C24.7783 8.17464 24.9504 8.19252 25.1069 8.26091C25.2632 8.32917 25.3969 8.44496 25.491 8.5934C25.5849 8.74197 25.6351 8.91654 25.6351 9.09505C25.6351 9.33449 25.545 9.56419 25.3844 9.73348C25.2239 9.90277 25.0062 9.99798 24.7792 9.99798Z" fill="#46D3D4"/>
</svg>
