<svg width="40" height="40" viewBox="0 0 40 40" fill="none" xmlns="http://www.w3.org/2000/svg">
<g clip-path="url(#clip0_630_3255)">
<path fill-rule="evenodd" clip-rule="evenodd" d="M17.6433 3.50017C18.2333 2.91096 19.0226 2.56426 19.8557 2.52847C20.6887 2.49268 21.5049 2.7704 22.1433 3.30683L22.3566 3.50183L25.5233 6.66683H29.9999C30.8406 6.66699 31.6502 6.98478 32.2665 7.55656C32.8828 8.12834 33.2602 8.91186 33.3233 9.75017L33.3333 10.0002V14.4768L36.4999 17.6435C37.0896 18.2336 37.4366 19.0233 37.4724 19.8567C37.5082 20.6902 37.2302 21.5067 36.6933 22.1452L36.4983 22.3568L33.3316 25.5235V30.0002C33.3319 30.8411 33.0143 31.6511 32.4425 32.2677C31.8706 32.8844 31.0869 33.2621 30.2483 33.3252L29.9999 33.3335H25.525L22.3583 36.5002C21.7682 37.0898 20.9785 37.4368 20.1451 37.4726C19.3116 37.5084 18.4951 37.2304 17.8566 36.6935L17.6449 36.5002L14.4783 33.3335H9.99995C9.15899 33.3338 8.34901 33.0162 7.73237 32.4443C7.11573 31.8725 6.73802 31.0888 6.67495 30.2502L6.66662 30.0002V25.5235L3.49995 22.3568C2.91027 21.7668 2.56328 20.977 2.52749 20.1436C2.49169 19.3102 2.7697 18.4936 3.30662 17.8552L3.49995 17.6435L6.66662 14.4768V10.0002C6.66677 9.15949 6.98457 8.34992 7.55634 7.73364C8.12812 7.11736 8.91165 6.73988 9.74995 6.67683L9.99995 6.66683H14.4766L17.6433 3.50017ZM25.1316 14.9718L18.0583 22.0452L15.1116 19.0985C14.7989 18.786 14.3748 18.6105 13.9327 18.6107C13.4906 18.6108 13.0666 18.7866 12.7541 19.0993C12.4416 19.4121 12.2661 19.8361 12.2663 20.2783C12.2664 20.7204 12.4422 21.1443 12.755 21.4568L16.7616 25.4635C16.9319 25.6338 17.134 25.7689 17.3565 25.8611C17.579 25.9533 17.8175 26.0008 18.0583 26.0008C18.2991 26.0008 18.5376 25.9533 18.7601 25.8611C18.9826 25.7689 19.1847 25.6338 19.3549 25.4635L27.4883 17.3285C27.7919 17.0142 27.9599 16.5932 27.9561 16.1562C27.9523 15.7192 27.777 15.3011 27.468 14.9921C27.159 14.6831 26.7409 14.5078 26.304 14.504C25.867 14.5002 25.446 14.6682 25.1316 14.9718Z" fill="#2F99AE"/>
</g>
<defs>
<clipPath id="clip0_630_3255">
<rect width="40" height="40" fill="white"/>
</clipPath>
</defs>
</svg>
