<svg width="41" height="40" viewBox="0 0 41 40" fill="none" xmlns="http://www.w3.org/2000/svg">
<g clip-path="url(#clip0_121_6)">
<mask id="mask0_121_6" style="mask-type:luminance" maskUnits="userSpaceOnUse" x="0" y="0" width="41" height="40">
<path d="M40.5 0H0.5V40H40.5V0Z" fill="white"/>
</mask>
<g mask="url(#mask0_121_6)">
<path d="M39.576 22.4924C40.0589 22.4924 40.4503 22.1009 40.4503 21.6181V0.874293C40.4503 0.391445 40.0589 0 39.576 0H1.42507C0.942226 0 0.550781 0.391445 0.550781 0.874293V21.6181C0.550781 22.1009 0.942226 22.4924 1.42507 22.4924H4.16773V30.5799H3.0147C1.65605 30.5799 0.550781 31.6852 0.550781 33.0438V35.092C0.550781 37.7983 2.75249 40 5.45874 40H35.5424C38.2486 40 40.4503 37.7983 40.4503 35.092V33.0438C40.4503 31.6852 39.3451 30.5799 37.9864 30.5799H36.8334V22.4924H39.576ZM2.29937 1.74859H38.7017V20.7438H24.2038C23.9442 20.7438 23.6982 20.8591 23.532 21.0585L20.5005 24.6977L17.4691 21.0585C17.3029 20.8591 17.0569 20.7438 16.7973 20.7438H2.29937V1.74859ZM38.7017 33.0438V35.092C38.7017 36.8341 37.2844 38.2514 35.5424 38.2514H5.45874C3.71667 38.2514 2.29937 36.8341 2.29937 35.092V33.0438C2.29937 32.6493 2.62023 32.3285 3.0147 32.3285H14.3324L14.8234 34.4185C14.9162 34.8136 15.2687 35.0928 15.6745 35.0928H25.3266C25.7326 35.0928 26.085 34.8135 26.1778 34.4185L26.6688 32.3285H37.9865C38.3809 32.3285 38.7017 32.6493 38.7017 33.0438ZM35.0848 30.5799H25.9759C25.5701 30.5799 25.2176 30.8592 25.1248 31.2542L24.6338 33.3442H16.3672L15.8763 31.2542C15.7834 30.8591 15.431 30.5799 15.0251 30.5799H5.91631V22.4924H16.3877L19.8288 26.6232C19.995 26.8226 20.241 26.9378 20.5005 26.9378C20.7601 26.9378 21.0061 26.8225 21.1723 26.6232L24.6134 22.4924H35.0848V30.5799Z" fill="#E8F1F1"/>
<path d="M15.2187 6.54351H6.79421C6.31137 6.54351 5.91992 6.15206 5.91992 5.66921C5.91992 5.18637 6.31137 4.79492 6.79421 4.79492H15.2187C15.7015 4.79492 16.093 5.18637 16.093 5.66921C16.093 6.15206 15.7016 6.54351 15.2187 6.54351Z" fill="#46D3D4"/>
<path d="M34.2059 6.54351H20.4954C20.0125 6.54351 19.6211 6.15206 19.6211 5.66921C19.6211 5.18637 20.0125 4.79492 20.4954 4.79492H34.2059C34.6887 4.79492 35.0802 5.18637 35.0802 5.66921C35.0802 6.15206 34.6887 6.54351 34.2059 6.54351Z" fill="#46D3D4"/>
<path d="M34.2051 11.4009H25.7806C25.2977 11.4009 24.9062 11.0095 24.9062 10.5266C24.9062 10.0438 25.2977 9.65234 25.7806 9.65234H34.2051C34.6879 9.65234 35.0793 10.0438 35.0793 10.5266C35.0793 11.0095 34.6879 11.4009 34.2051 11.4009Z" fill="#46D3D4"/>
<path d="M20.5047 11.4009H6.79421C6.31137 11.4009 5.91992 11.0095 5.91992 10.5266C5.91992 10.0438 6.31137 9.65234 6.79421 9.65234H20.5047C20.9876 9.65234 21.379 10.0438 21.379 10.5266C21.379 11.0095 20.9876 11.4009 20.5047 11.4009Z" fill="#46D3D4"/>
<path d="M15.2187 16.2584H6.79421C6.31137 16.2584 5.91992 15.8669 5.91992 15.3841C5.91992 14.9012 6.31137 14.5098 6.79421 14.5098H15.2187C15.7015 14.5098 16.093 14.9012 16.093 15.3841C16.093 15.8669 15.7016 16.2584 15.2187 16.2584Z" fill="#46D3D4"/>
<path d="M34.2059 16.2584H20.4954C20.0125 16.2584 19.6211 15.8669 19.6211 15.3841C19.6211 14.9012 20.0125 14.5098 20.4954 14.5098H34.2059C34.6887 14.5098 35.0802 14.9012 35.0802 15.3841C35.0802 15.8669 34.6887 16.2584 34.2059 16.2584Z" fill="#46D3D4"/>
</g>
</g>
<defs>
<clipPath id="clip0_121_6">
<rect width="41" height="40" fill="white"/>
</clipPath>
</defs>
</svg>
