<svg width="44" height="44" viewBox="0 0 44 44" fill="none" xmlns="http://www.w3.org/2000/svg">
<g clip-path="url(#clip0_122_18)">
<path d="M1.56054 29.0441C1.32482 29.0441 1.08771 28.99 0.866336 28.8802C0.331977 28.6151 0 28.0797 0 27.4829V6.69061C0 4.55206 1.73791 2.81226 3.87398 2.81226H26.3889C28.5251 2.81226 30.263 4.55206 30.263 6.69061V12.0876C30.263 12.6097 29.8397 13.033 29.3176 13.033C28.7956 13.033 28.3723 12.6097 28.3723 12.0876V6.69061C28.3723 5.59457 27.4826 4.70288 26.3889 4.70288H3.87398C2.78034 4.70297 1.89063 5.59465 1.89063 6.69061V26.8145L4.40945 24.901C4.85082 24.5658 5.39886 24.3812 5.95272 24.3812H10.2372C10.7593 24.3812 11.1825 24.8044 11.1825 25.3265C11.1825 25.8485 10.7593 26.2718 10.2372 26.2718H5.95272C5.80938 26.2718 5.6675 26.3197 5.55311 26.4064L2.5013 28.725C2.22346 28.9362 1.89346 29.044 1.56054 29.0441Z" fill="#2F99AE"/>
<path d="M38.2331 17.5935H15.0585C14.5363 17.5935 14.1132 17.1703 14.1132 16.6482C14.1132 16.1262 14.5363 15.7029 15.0585 15.7029H38.233C38.755 15.7029 39.1783 16.1262 39.1783 16.6482C39.1783 17.1703 38.7551 17.5935 38.2331 17.5935Z" fill="#222222"/>
<path d="M38.2331 21.9612H15.0585C14.5363 21.9612 14.1132 21.5381 14.1132 21.016C14.1132 20.494 14.5363 20.0707 15.0585 20.0707H38.233C38.755 20.0707 39.1783 20.494 39.1783 21.016C39.1783 21.5381 38.7551 21.9612 38.2331 21.9612Z" fill="#2F99AE"/>
<path d="M32.2259 26.3355H15.0585C14.5363 26.3355 14.1132 25.9122 14.1132 25.3902C14.1132 24.8681 14.5363 24.4449 15.0585 24.4449H32.2259C32.7479 24.4449 33.1711 24.8681 33.1711 25.3902C33.1711 25.9123 32.7479 26.3355 32.2259 26.3355Z" fill="#222222"/>
<path d="M20.389 33.2642H15.0585C14.5363 33.2642 14.1132 32.8411 14.1132 32.319C14.1132 31.7968 14.5363 31.3737 15.0585 31.3737H20.389C20.911 31.3737 21.3343 31.7968 21.3343 32.319C21.3343 32.8411 20.911 33.2642 20.389 33.2642Z" fill="#2F99AE"/>
<path d="M42.3434 41.187C41.99 41.187 41.6396 41.0725 41.3447 40.8484L37.8146 38.1665C37.6567 38.0466 37.4608 37.9806 37.2628 37.9806H13.6249C11.2357 37.9806 9.29199 36.0347 9.29199 33.6428V15.4797C9.29199 13.0879 11.2357 11.1418 13.6249 11.1418H39.6672C42.0563 11.1418 44.0001 13.0879 44.0001 15.4797V39.5295C44.0001 40.1631 43.6477 40.7316 43.0805 41.0131C42.8455 41.1296 42.5936 41.187 42.3434 41.187ZM13.6249 13.0324C12.2782 13.0324 11.1826 14.1302 11.1826 15.4796V33.6428C11.1826 34.9922 12.2782 36.0901 13.6249 36.0901H37.2628C37.8715 36.0901 38.4736 36.2928 38.9583 36.6612L42.1094 39.0551V15.4797C42.1094 14.1303 41.0138 13.0325 39.6672 13.0325L13.6249 13.0324Z" fill="#222222"/>
</g>
<defs>
<clipPath id="clip0_122_18">
<rect width="44" height="44" fill="white"/>
</clipPath>
</defs>
</svg>
