<svg width="86" height="86" viewBox="0 0 86 86" fill="none" xmlns="http://www.w3.org/2000/svg">
<path d="M72.5818 8.84534C72.5818 6.27172 70.4955 4.18555 67.922 4.18555H6.33948C3.76603 4.18555 1.67969 6.27189 1.67969 8.84534V15.988H72.5818V8.84534Z" fill="#46D3D4"/>
<path d="M6.33914 69.0647C3.76586 69.0647 1.67969 66.9786 1.67969 64.4036V15.9883H72.5826V55.943H50.4007C48.1969 55.943 46.4114 57.7285 46.4114 59.9306V69.0647H6.33914Z" fill="white"/>
<path d="M80.3324 81.8131H50.4002C48.1976 81.8131 46.4121 80.0276 46.4121 77.825V59.9295C46.4121 57.7269 48.1976 55.9414 50.4002 55.9414H80.3324C82.535 55.9414 84.3205 57.7269 84.3205 59.9295V77.825C84.3205 80.0276 82.535 81.8131 80.3324 81.8131Z" fill="#868EAF"/>
<path d="M80.3324 81.8131H50.4002C48.1976 81.8131 46.4121 80.0276 46.4121 77.825V59.9295C46.4121 57.7269 48.1976 55.9414 50.4002 55.9414H80.3324C82.535 55.9414 84.3205 57.7269 84.3205 59.9295V77.825C84.3205 80.0276 82.535 81.8131 80.3324 81.8131Z" fill="#44D2A8"/>
<path d="M10.2251 9.44488C9.95363 8.78241 9.26311 8.35946 8.55025 8.41271C7.81958 8.4673 7.19776 9.00446 7.03601 9.71884C6.70461 11.1825 8.41184 12.3262 9.64087 11.46C10.2748 11.013 10.5239 10.1623 10.2251 9.44488Z" fill="#222222"/>
<path d="M16.6021 9.44424C16.0243 8.05732 13.9799 8.1015 13.4718 9.52067C12.9552 10.9639 14.5695 12.3016 15.8911 11.5405C16.6048 11.1296 16.9322 10.2067 16.6021 9.44424Z" fill="#222222"/>
<path d="M80.3322 54.2626H74.2623L74.2615 8.84534C74.2615 5.34974 71.4176 2.50586 67.922 2.50586H6.33948C2.84388 2.50586 0 5.34974 0 8.84534V64.4037C0 67.9 2.84371 70.7445 6.33914 70.7445H17.6754C18.603 70.7445 19.355 69.9925 19.355 69.0648C19.355 68.1371 18.603 67.3851 17.6754 67.3851H6.33914C4.69607 67.3851 3.35938 66.0478 3.35938 64.4037V17.6681H70.903V54.2626H50.4C47.3178 54.2626 44.7318 56.8441 44.7318 59.9307V67.3851H32.4465C31.5188 67.3851 30.7668 68.1371 30.7668 69.0648C30.7668 69.9925 31.5188 70.7445 32.4465 70.7445H44.7323V77.8259C44.7323 80.9511 47.2748 83.4937 50.4 83.4937H80.3322C83.4575 83.4937 86 80.9511 86 77.8259V59.9303C86 56.8051 83.4575 54.2626 80.3322 54.2626ZM3.35938 8.84534C3.35938 7.2021 4.69624 5.86523 6.33948 5.86523H67.922C69.5653 5.86523 70.9021 7.2021 70.9021 8.84534V14.3084H3.35938V8.84534ZM82.6406 77.8259C82.6406 79.0988 81.6051 80.1343 80.3322 80.1343H50.4C49.1272 80.1343 48.0916 79.0988 48.0916 77.8259V59.9303C48.0916 58.6731 49.145 57.6228 50.4007 57.6228L80.3322 57.6219C81.6051 57.6219 82.6406 58.6575 82.6406 59.9303V77.8259Z" fill="#222222"/>
<path d="M74.0687 62.5994C73.4128 61.9434 72.3495 61.9434 71.6931 62.5994C71.0372 63.2553 71.0372 64.3189 71.6931 64.9748L75.5974 68.879L71.6931 72.7833C71.0372 73.4392 71.0372 74.5028 71.6931 75.1587C72.3403 75.8057 73.4213 75.8057 74.0687 75.1587L79.1605 70.0667C79.8164 69.4108 79.8164 68.3474 79.1605 67.6913L74.0687 62.5994Z" fill="#222222"/>
<path d="M59.1917 62.5974C58.5357 61.9415 57.4724 61.9415 56.8162 62.5974L51.7244 67.6894C51.0684 68.3453 51.0684 69.4087 51.7244 70.0648L56.8162 75.1568C57.4633 75.804 58.5444 75.8038 59.1917 75.1568C59.8477 74.5008 59.8477 73.4373 59.1917 72.7814L55.2875 68.8771L59.1917 64.9728C59.8478 64.3169 59.8478 63.2533 59.1917 62.5974Z" fill="#222222"/>
<path d="M68.396 62.2586C67.5526 61.8721 66.5557 62.2426 66.1694 63.0861L61.5046 73.2701C61.1182 74.1135 61.4888 75.1104 62.3323 75.4967C63.1651 75.8781 64.1779 75.5009 64.5589 74.6691L69.2237 64.4852C69.6101 63.6418 69.2395 62.6449 68.396 62.2586Z" fill="#222222"/>
<path d="M28.2883 40.6113C29.216 40.6113 29.968 39.8593 29.968 38.9316V25.1914C29.968 24.2637 29.216 23.5117 28.2883 23.5117H25.3516C24.4239 23.5117 23.6719 24.2637 23.6719 25.1914C23.6719 26.1191 24.4239 26.8711 25.3516 26.8711H26.6086V38.9316C26.6086 39.8593 27.3606 40.6113 28.2883 40.6113Z" fill="#222222"/>
<path d="M16.0168 62.4277C16.9445 62.4277 17.6965 61.6757 17.6965 60.748V47.0078C17.6965 46.0801 16.9445 45.3281 16.0168 45.3281H13.0801C12.1524 45.3281 11.4004 46.0801 11.4004 47.0078C11.4004 47.9355 12.1524 48.6875 13.0801 48.6875H14.3372V60.748C14.3372 61.6757 15.0892 62.4277 16.0168 62.4277Z" fill="#222222"/>
<path d="M40.5852 62.4277C41.5129 62.4277 42.2649 61.6757 42.2649 60.748V47.0078C42.2649 46.0801 41.5129 45.3281 40.5852 45.3281H37.6484C36.7207 45.3281 35.9688 46.0801 35.9688 47.0078C35.9688 47.9355 36.7207 48.6875 37.6484 48.6875H38.9055V60.748C38.9055 61.6757 39.6575 62.4277 40.5852 62.4277Z" fill="#222222"/>
<path d="M54.1282 40.6113C55.0557 40.6113 55.8079 39.8593 55.8079 38.9316V25.1914C55.8079 24.2637 55.0557 23.5117 54.1282 23.5117H51.1914C50.2639 23.5117 49.5117 24.2637 49.5117 25.1914C49.5117 26.1191 50.2639 26.8711 51.1914 26.8711H52.4485V38.9316C52.4485 39.8593 53.2006 40.6113 54.1282 40.6113Z" fill="#222222"/>
<path d="M63.5696 40.6113C64.4971 40.6113 65.2493 39.8593 65.2493 38.9316V25.1914C65.2493 24.2637 64.4971 23.5117 63.5696 23.5117H60.6328C59.7053 23.5117 58.9531 24.2637 58.9531 25.1914C58.9531 26.1191 59.7053 26.8711 60.6328 26.8711H61.8899V38.9316C61.8899 39.8593 62.6421 40.6113 63.5696 40.6113Z" fill="#222222"/>
<path d="M15.3249 23.2305C12.2077 23.2305 9.67188 25.7665 9.67188 28.8835V35.2377C9.67188 38.3549 12.2079 40.8907 15.3249 40.8907C18.4419 40.8907 20.9779 38.3547 20.9779 35.2377V28.8835C20.9779 25.7663 18.4419 23.2305 15.3249 23.2305ZM17.6185 35.2377C17.6185 36.5024 16.5897 37.5313 15.3249 37.5313C14.0601 37.5313 13.0313 36.5024 13.0313 35.2377V28.8835C13.0313 27.6188 14.0601 26.5898 15.3249 26.5898C16.5895 26.5898 17.6185 27.6188 17.6185 28.8835V35.2377Z" fill="#222222"/>
<path d="M33.5032 57.0561V50.7018C33.5032 47.5847 30.9673 45.0488 27.8503 45.0488C24.7331 45.0488 22.1973 47.5848 22.1973 50.7018V57.0561C22.1973 60.1732 24.7333 62.7091 27.8503 62.7091C30.9673 62.7091 33.5032 60.1732 33.5032 57.0561ZM30.1439 57.0561C30.1439 58.3207 29.1151 59.3497 27.8503 59.3497C26.5854 59.3497 25.5566 58.3207 25.5566 57.0561V50.7018C25.5566 49.4372 26.5856 48.4082 27.8503 48.4082C29.1149 48.4082 30.1439 49.4372 30.1439 50.7018V57.0561Z" fill="#222222"/>
<path d="M46.1243 35.2377V28.8835C46.1243 25.7663 43.5883 23.2305 40.4713 23.2305C37.3544 23.2305 34.8184 25.7665 34.8184 28.8835V35.2377C34.8184 38.3549 37.3544 40.8907 40.4713 40.8907C43.5883 40.8907 46.1243 38.3549 46.1243 35.2377ZM42.765 35.2377C42.765 36.5024 41.7362 37.5313 40.4713 37.5313C39.2065 37.5313 38.1777 36.5024 38.1777 35.2377V28.8835C38.1777 27.6188 39.2065 26.5898 40.4713 26.5898C41.7362 26.5898 42.765 27.6188 42.765 28.8835V35.2377Z" fill="#222222"/>
<path d="M26.4837 68.4213C26.2084 67.761 25.5227 67.336 24.8088 67.3893C24.0777 67.4437 23.4575 67.982 23.2946 68.6957C22.9598 70.1633 24.6677 71.296 25.8978 70.4369C26.5354 69.9914 26.7776 69.139 26.4837 68.4213Z" fill="#222222"/>
</svg>
