<svg width="86" height="86" viewBox="0 0 86 86" fill="none" xmlns="http://www.w3.org/2000/svg">
<g clip-path="url(#clip0_1636_3290)">
<path d="M67.0195 24.5091H33.7533C32.5876 24.5091 31.6436 23.5651 31.6436 22.3994V20.5954C31.6436 18.0036 29.5423 15.9023 26.9506 15.9023H5.95281C3.36105 15.9023 1.25977 18.0036 1.25977 20.5954V71.2228C1.25977 73.7676 3.32242 75.8302 5.86715 75.8302H67.0212C69.5659 75.8302 71.6286 73.7676 71.6286 71.2228V29.1164C71.6286 26.5717 69.5659 24.5091 67.0212 24.5091H67.0195Z" fill="#FFDB6B"/>
<path d="M84.2522 22.7933L72.8136 10.7298C71.7083 9.56411 69.7464 10.3468 69.7464 11.9526V11.9778C69.7464 12.8949 69.0477 13.6525 68.1356 13.7465C55.627 15.0483 45.873 25.6219 45.873 38.4766C45.873 40.9272 46.2275 43.2939 46.8876 45.5296C47.2554 46.7742 48.92 46.9892 49.6053 45.8874C53.4988 39.6255 60.1 35.2247 67.7711 34.3109C68.8226 34.1866 69.7464 35.0181 69.7464 36.078C69.7464 37.6838 71.7083 38.4665 72.8136 37.3008L84.2522 25.2373C84.9023 24.552 84.9023 23.477 84.2522 22.7916V22.7933Z" fill="#44D2A8"/>
<path d="M11.8477 59.7578H21.9006C22.596 59.7578 23.1604 59.1934 23.1604 58.498C23.1604 57.8027 22.596 57.2383 21.9006 57.2383H11.8477C11.1523 57.2383 10.5879 57.8027 10.5879 58.498C10.5879 59.1934 11.1523 59.7578 11.8477 59.7578Z" fill="black"/>
<path d="M39.4264 63.2344H11.8477C11.1523 63.2344 10.5879 63.7988 10.5879 64.4941C10.5879 65.1895 11.1523 65.7539 11.8477 65.7539H39.4248C40.1202 65.7539 40.6845 65.1895 40.6845 64.4941C40.6845 63.7988 40.1202 63.2344 39.4248 63.2344H39.4264Z" fill="black"/>
<path d="M85.1669 21.9269L73.7282 9.86343C72.8682 8.9564 71.5614 8.66917 70.3991 9.13277C69.2367 9.59636 68.4859 10.7033 68.4859 11.9546V11.9798C68.4859 12.2452 68.2793 12.4669 68.0038 12.4955C61.616 13.1607 55.7119 16.1572 51.3783 20.9343C50.7081 21.6733 50.0849 22.446 49.5088 23.2472H33.7516C33.283 23.2472 32.9017 22.8659 32.9017 22.3973V20.5933C32.9017 17.3112 30.231 14.6405 26.9489 14.6405H5.95281C2.6707 14.6421 0 17.3128 0 20.595V71.2224C0 74.4558 2.63207 77.0879 5.86715 77.0879H67.0212C70.2563 77.0879 72.8884 74.4558 72.8884 71.2207V38.7944C73.1957 38.6398 73.4813 38.4316 73.7299 38.1695L85.1686 26.106C86.2805 24.9336 86.2805 23.0977 85.1686 21.9253L85.1669 21.9269ZM67.0195 74.5684H5.86715C4.02117 74.5684 2.51953 73.0667 2.51953 71.2207V20.595C2.51953 18.7019 4.0598 17.1617 5.95281 17.1617H26.9506C28.8436 17.1617 30.3839 18.7019 30.3839 20.595V22.3989C30.3839 24.2567 31.8956 25.7684 33.7533 25.7684H47.9097C45.7597 29.6233 44.6125 33.9871 44.6125 38.4803C44.6125 41.0015 44.972 43.4941 45.6791 45.8894C45.9898 46.9442 46.8616 47.6917 47.9517 47.8395C48.0811 47.8563 48.2087 47.8664 48.3364 47.8664C49.2871 47.8664 50.1605 47.386 50.6745 46.5562C54.4891 40.422 60.7745 36.4159 67.9198 35.566C68.113 35.5425 68.2457 35.6332 68.3095 35.6903C68.375 35.7491 68.4859 35.8784 68.4859 36.0834C68.4859 37.323 69.2233 38.4198 70.3671 38.8918V71.2241C70.3671 73.0701 68.8655 74.5717 67.0195 74.5717V74.5684ZM83.3377 24.3743L71.899 36.4378C71.6891 36.6595 71.4522 36.6108 71.3313 36.5621C71.2087 36.5134 71.0054 36.3857 71.0054 36.0817C71.0054 35.2133 70.6325 34.3835 69.9825 33.8057C69.3375 33.2329 68.4775 32.9625 67.6225 33.0633C59.7129 34.0039 52.7556 38.4366 48.5346 45.2242C48.4775 45.3166 48.3952 45.3552 48.2893 45.3401C48.1382 45.32 48.1063 45.2108 48.0962 45.1738C47.4579 43.0104 47.1337 40.7562 47.1337 38.4786C47.1337 32.6047 49.3055 26.9761 53.2478 22.6274C57.1631 18.3106 62.4961 15.6012 68.2675 15.0016C69.8297 14.8387 71.0071 13.5403 71.0071 11.9798V11.9546C71.0071 11.6489 71.212 11.523 71.333 11.4743C71.385 11.4541 71.4573 11.4323 71.5379 11.4323C71.6488 11.4323 71.7798 11.4709 71.9007 11.5985L83.3394 23.6621C83.5292 23.8619 83.5292 24.1744 83.3394 24.3743H83.3377Z" fill="black"/>
</g>
<defs>
<clipPath id="clip0_1636_3290">
<rect width="86" height="86" fill="white"/>
</clipPath>
</defs>
</svg>
