<svg width="40" height="40" viewBox="0 0 40 40" fill="none" xmlns="http://www.w3.org/2000/svg">
<path d="M33.1789 34H28.1569L28.5135 29.855H26.049L25.6924 34H15.3075L14.951 29.855H12.4865L12.843 34H7.82099L5 16.0534L12.0525 5H28.9474L36 16.0534L33.1789 34ZM27.5524 10.5267H23.011L23.321 12.5916H17.679L17.989 10.5267H13.4475L10.642 16.0534L12.0525 27.0916H28.9474L30.358 16.0534L27.5524 10.5267ZM25.0725 23.4324C24.685 23.4324 24.375 22.2786 24.375 20.8665C24.375 19.4393 24.685 18.2853 25.0725 18.2853C25.4755 18.2853 25.7854 19.4393 25.7854 20.8665C25.7854 22.2786 25.4755 23.4324 25.0725 23.4324ZM16.191 23.6451C15.788 23.6451 15.478 22.4911 15.478 21.0791C15.478 19.6518 15.788 18.5131 16.191 18.5131C16.5785 18.5131 16.8885 19.6518 16.8885 21.0791C16.8885 22.4911 16.5785 23.6451 16.191 23.6451Z" fill="#46D3D4"/>
</svg>
