<svg width="40" height="40" viewBox="0 0 40 40" fill="none" xmlns="http://www.w3.org/2000/svg">
<path d="M1.49886 26.1151L6.89091 0.775852C7.07727 -0.0883181 8.65796 -0.292486 9.21591 0.480018L15.0114 8.43422L1.49886 26.1151ZM40 32.0001L34.6886 8.93422C34.6501 8.76935 34.5508 8.61534 34.4015 8.4889C34.2522 8.36245 34.0585 8.26838 33.8415 8.21688C33.6244 8.16537 33.3923 8.1584 33.1703 8.19671C32.9483 8.23502 32.7448 8.31715 32.5818 8.43422L0 32.0001L18.1091 39.6593C18.6648 39.8828 19.2884 40 19.9222 40C20.556 40 21.1795 39.8828 21.7352 39.6593L40 32.0001ZM25.2682 11.9109L21.1159 6.11587C21.0127 5.967 20.8553 5.84199 20.6611 5.75467C20.467 5.66735 20.2437 5.62113 20.0159 5.62113C19.7882 5.62113 19.5649 5.66735 19.3707 5.75467C19.1766 5.84199 19.0192 5.967 18.9159 6.11587L0.6625 29.9785L25.2682 11.9109Z" fill="#2F99AE"/>
</svg>
