<svg width="87" height="86" viewBox="0 0 87 86" fill="none" xmlns="http://www.w3.org/2000/svg">
<path d="M38.125 61.1406H48.875V81.2969H38.125V61.1406Z" fill="#E7F2FF"/>
<path d="M27.375 4.70312H59.625V61.1406H27.375V4.70312Z" fill="#2F99AE"/>
<path d="M5.20312 14.1094V51.7344C5.20312 53.2186 6.40636 54.4219 7.89062 54.4219H79.1094C80.5936 54.4219 81.7969 53.2186 81.7969 51.7344V14.1094C81.7969 12.6251 80.5936 11.4219 79.1094 11.4219H7.89062C6.40636 11.4219 5.20312 12.6251 5.20312 14.1094Z" fill="#46D3D4"/>
<path d="M13.2656 11.4219H73.7344V54.4219H13.2656V11.4219Z" fill="#E7F2FF"/>
<path d="M56.9375 54.4224V41.5802C56.9375 40.5935 56.6034 39.6358 55.9896 38.8633C55.3758 38.0907 54.5185 37.5488 53.5573 37.3258L46.0887 35.5938H40.9113L33.4427 37.3258C32.4815 37.5488 31.6242 38.0907 31.0104 38.8633C30.3966 39.6358 30.0625 40.5935 30.0625 41.5802V54.4224H56.9375Z" fill="#AE2F46"/>
<path d="M50.0466 25.4413C50.0466 23.705 49.3569 22.0398 48.1291 20.812C46.9014 19.5843 45.2362 18.8945 43.4999 18.8945C41.7636 18.8945 40.0984 19.5843 38.8706 20.812C37.6429 22.0398 36.9531 23.705 36.9531 25.4413V29.3012C36.9587 30.4863 37.2653 31.6506 37.8441 32.6848C38.4228 33.719 39.2549 34.5892 40.2621 35.2137C41.217 35.8631 42.3451 36.2104 43.4999 36.2104C44.6547 36.2104 45.7828 35.8631 46.7376 35.2137C47.7448 34.5891 48.5767 33.7189 49.1555 32.6847C49.7343 31.6505 50.0409 30.4863 50.0466 29.3012V25.4413Z" fill="#FFDBCA"/>
<path d="M79.1094 10.2461H60.8008V4.70312C60.8006 4.39134 60.6767 4.09238 60.4562 3.87192C60.2357 3.65146 59.9368 3.52752 59.625 3.52734H27.375C27.0632 3.52752 26.7643 3.65146 26.5438 3.87192C26.3233 4.09238 26.1994 4.39134 26.1992 4.70312V10.2461H7.89062C6.8664 10.2473 5.88448 10.6548 5.16025 11.379C4.43601 12.1032 4.02859 13.0852 4.02734 14.1094V41.5797C4.02734 41.8915 4.15122 42.1906 4.37172 42.4111C4.59222 42.6316 4.89129 42.7554 5.20312 42.7554C5.51496 42.7554 5.81403 42.6316 6.03453 42.4111C6.25503 42.1906 6.37891 41.8915 6.37891 41.5797V14.1094C6.37926 13.7086 6.53865 13.3242 6.82207 13.0408C7.1055 12.7574 7.4898 12.598 7.89062 12.5977H12.0898V53.2461H7.89062C7.4898 53.2457 7.1055 53.0864 6.82207 52.8029C6.53865 52.5195 6.37926 52.1352 6.37891 51.7344V47.7031C6.37891 47.3913 6.25503 47.0922 6.03453 46.8717C5.81403 46.6512 5.51496 46.5273 5.20312 46.5273C4.89129 46.5273 4.59222 46.6512 4.37172 46.8717C4.15122 47.0922 4.02734 47.3913 4.02734 47.7031V51.7344C4.02859 52.7586 4.43601 53.7405 5.16025 54.4648C5.88448 55.189 6.8664 55.5964 7.89062 55.5977H26.1992V61.1406C26.1994 61.4524 26.3233 61.7514 26.5438 61.9718C26.7643 62.1923 27.0632 62.3162 27.375 62.3164H36.9492V81.2969C36.9492 81.6087 37.0731 81.9078 37.2936 82.1283C37.5141 82.3488 37.8132 82.4727 38.125 82.4727C38.4368 82.4727 38.7359 82.3488 38.9564 82.1283C39.1769 81.9078 39.3008 81.6087 39.3008 81.2969V62.3164H47.6992V81.2969C47.6992 81.6087 47.8231 81.9078 48.0436 82.1283C48.2641 82.3488 48.5632 82.4727 48.875 82.4727C49.1868 82.4727 49.4859 82.3488 49.7064 82.1283C49.9269 81.9078 50.0508 81.6087 50.0508 81.2969V62.3164H59.625C59.9368 62.3162 60.2357 62.1923 60.4562 61.9718C60.6767 61.7514 60.8006 61.4524 60.8008 61.1406V55.5977H79.1094C80.1336 55.5964 81.1155 55.189 81.8398 54.4648C82.564 53.7405 82.9714 52.7586 82.9727 51.7344V36.4526C82.9727 36.1407 82.8488 35.8417 82.6283 35.6212C82.4078 35.4007 82.1087 35.2768 81.7969 35.2768C81.485 35.2768 81.186 35.4007 80.9655 35.6212C80.745 35.8417 80.6211 36.1407 80.6211 36.4526V51.7344C80.6207 52.1352 80.4614 52.5195 80.1779 52.8029C79.8945 53.0864 79.5102 53.2457 79.1094 53.2461H74.9102V12.5977H79.1094C79.5102 12.598 79.8945 12.7574 80.1779 13.0408C80.4614 13.3242 80.6207 13.7086 80.6211 14.1094V20.8637C80.6211 21.1756 80.745 21.4746 80.9655 21.6951C81.186 21.9156 81.485 22.0395 81.7969 22.0395C82.1087 22.0395 82.4078 21.9156 82.6283 21.6951C82.8488 21.4746 82.9727 21.1756 82.9727 20.8637V14.1094C82.9714 13.0852 82.564 12.1032 81.8398 11.379C81.1155 10.6548 80.1336 10.2473 79.1094 10.2461ZM28.5508 5.87891H58.4492V10.2461H28.5508V5.87891ZM58.4492 59.9648H28.5508V55.5977H58.4492V59.9648ZM72.5586 53.2461H58.1133V41.5797C58.1175 40.3262 57.695 39.1087 56.9152 38.1274C56.1353 37.146 55.0447 36.4594 53.8227 36.1805L48.8024 35.0161C49.5733 34.2782 50.1854 33.3908 50.6013 32.4081C51.0172 31.4254 51.2281 30.3682 51.2212 29.3011V25.4412C51.2212 23.3931 50.4076 21.4288 48.9593 19.9806C47.5111 18.5323 45.5468 17.7187 43.4987 17.7187C41.4505 17.7187 39.4863 18.5323 38.038 19.9806C36.5897 21.4288 35.7761 23.3931 35.7761 25.4412V29.3011C35.7692 30.3682 35.9801 31.4254 36.396 32.4081C36.8119 33.3908 37.424 34.2782 38.1949 35.0161L33.1773 36.1805C31.9553 36.4594 30.8646 37.146 30.0848 38.1274C29.305 39.1087 28.8824 40.3262 28.8867 41.5797C28.8867 41.8915 29.0106 42.1906 29.2311 42.4111C29.4516 42.6316 29.7507 42.7554 30.0625 42.7554C30.3743 42.7554 30.6734 42.6316 30.8939 42.4111C31.1144 42.1906 31.2383 41.8915 31.2383 41.5797C31.2358 40.8579 31.479 40.1568 31.9281 39.5918C32.3771 39.0268 33.0051 38.6314 33.7088 38.4709L40.8125 36.8228C41.6612 37.1888 42.5757 37.3776 43.5 37.3776C44.4243 37.3776 45.3388 37.1888 46.1875 36.8228L53.2926 38.4709C53.9962 38.6314 54.6242 39.0268 55.0733 39.5918C55.5223 40.1568 55.7656 40.8579 55.7631 41.5797V53.2461H31.2383V47.7031C31.2383 47.3913 31.1144 47.0922 30.8939 46.8717C30.6734 46.6512 30.3743 46.5273 30.0625 46.5273C29.7507 46.5273 29.4516 46.6512 29.2311 46.8717C29.0106 47.0922 28.8867 47.3913 28.8867 47.7031V53.2461H14.4414V12.5977H72.5586V53.2461ZM40.9254 34.2394C40.0746 33.7255 39.3705 33.0012 38.8807 32.1364C38.391 31.2715 38.1321 30.2951 38.129 29.3011V25.4412C38.129 24.0168 38.6949 22.6506 39.7022 21.6434C40.7094 20.6361 42.0755 20.0702 43.5 20.0702C44.9245 20.0702 46.2906 20.6361 47.2978 21.6434C48.3051 22.6506 48.871 24.0168 48.871 25.4412V29.3011C48.8679 30.2951 48.609 31.2716 48.1191 32.1365C47.6292 33.0014 46.9249 33.7256 46.074 34.2394C45.314 34.7539 44.4174 35.0288 43.4997 35.0288C42.582 35.0288 41.6853 34.7539 40.9254 34.2394Z" fill="#222222"/>
<path d="M81.7969 25.8125C81.4851 25.8127 81.1861 25.9366 80.9657 26.1571C80.7452 26.3775 80.6213 26.6765 80.6211 26.9883V30.3288C80.6211 30.6407 80.745 30.9397 80.9655 31.1602C81.186 31.3807 81.485 31.5046 81.7969 31.5046C82.1087 31.5046 82.4078 31.3807 82.6283 31.1602C82.8488 30.9397 82.9727 30.6407 82.9727 30.3288V26.9883C82.9725 26.6765 82.8485 26.3775 82.6281 26.1571C82.4076 25.9366 82.1087 25.8127 81.7969 25.8125Z" fill="#222222"/>
<path d="M10.4102 34.9375V30.9062C10.4102 30.5944 10.2863 30.2953 10.0658 30.0748C9.84528 29.8543 9.54621 29.7305 9.23438 29.7305C8.92254 29.7305 8.62347 29.8543 8.40297 30.0748C8.18247 30.2953 8.05859 30.5944 8.05859 30.9062V34.9375C8.05859 35.2493 8.18247 35.5484 8.40297 35.7689C8.62347 35.9894 8.92254 36.1133 9.23438 36.1133C9.54621 36.1133 9.84528 35.9894 10.0658 35.7689C10.2863 35.5484 10.4102 35.2493 10.4102 34.9375Z" fill="#222222"/>
</svg>
