<svg width="426" height="349" viewBox="0 0 426 349" fill="none" xmlns="http://www.w3.org/2000/svg">
<path d="M408.827 151.82C408.827 218.263 366.053 274.733 306.479 295.315C282.499 303.554 256.844 305.721 231.818 301.624C229.443 301.237 227.084 300.793 224.743 300.29C221.57 299.618 218.436 298.845 215.338 297.971C151.379 280.01 104.5 221.377 104.5 151.82C104.5 67.9718 172.625 0 256.664 0C340.702 0 408.827 67.9717 408.827 151.82Z" fill="#2F99AE" fill-opacity="0.2"/>
<path d="M161.359 198.679C161.091 198.822 160.891 199.065 160.802 199.355C160.714 199.645 160.745 199.958 160.888 200.226L218.097 307.138C218.24 307.406 218.484 307.605 218.775 307.693C219.066 307.782 219.379 307.751 219.648 307.608L300.519 264.529C300.787 264.386 300.987 264.143 301.075 263.853C301.163 263.563 301.133 263.249 300.99 262.982L243.78 156.069C243.637 155.802 243.393 155.602 243.103 155.514C242.812 155.426 242.498 155.457 242.23 155.599L161.359 198.679Z" fill="#3F3D56"/>
<path d="M168.875 201.803L221.228 299.637L293.001 261.405L240.648 163.569L168.875 201.803ZM164.327 204.225L164.337 204.22L164.326 204.226L164.327 204.225Z" fill="white"/>
<path d="M186.973 212.559C185.858 213.153 185.621 214.887 186.443 216.424C187.265 217.96 188.841 218.728 189.956 218.134L242.523 190.133C243.638 189.539 243.875 187.805 243.053 186.268C242.23 184.731 240.654 183.963 239.539 184.557L186.973 212.559Z" fill="#2F99AE"/>
<path d="M193.45 224.662C192.335 225.256 192.097 226.99 192.92 228.526C193.742 230.063 195.318 230.831 196.433 230.237L248.999 202.235C250.114 201.641 250.352 199.907 249.529 198.371C248.707 196.834 247.131 196.066 246.016 196.66L193.45 224.662Z" fill="#2F99AE"/>
<path d="M199.926 236.765C198.811 237.359 198.574 239.093 199.396 240.63C200.218 242.167 201.795 242.934 202.91 242.34L255.476 214.339C256.591 213.745 256.828 212.011 256.006 210.474C255.183 208.937 253.607 208.169 252.492 208.763L199.926 236.765Z" fill="#2F99AE"/>
<path d="M206.403 248.869C205.288 249.463 205.05 251.197 205.873 252.733C206.695 254.27 208.271 255.038 209.386 254.444L261.952 226.442C263.067 225.848 263.305 224.114 262.482 222.578C261.66 221.041 260.084 220.273 258.969 220.867L206.403 248.869Z" fill="#2F99AE"/>
<path d="M212.878 260.972C211.763 261.566 211.526 263.3 212.348 264.837C213.171 266.373 214.747 267.141 215.862 266.547L268.428 238.546C269.543 237.952 269.78 236.218 268.958 234.681C268.136 233.144 266.56 232.376 265.445 232.97L212.878 260.972Z" fill="#2F99AE"/>
<path d="M223.086 152.488L270.717 155.39L284.056 115.7L242.279 106.893L223.086 152.488Z" fill="#2F2E41"/>
<path d="M257.438 142.452C267.959 142.452 276.488 133.942 276.488 123.445C276.488 112.948 267.959 104.438 257.438 104.438C246.918 104.438 238.389 112.948 238.389 123.445C238.389 133.942 246.918 142.452 257.438 142.452Z" fill="#FFB8B8"/>
<path d="M306.356 293.836L306.479 295.315C282.499 303.553 256.845 305.721 231.818 301.623L224.743 300.29L231.475 285.394L235.889 275.629L234.3 241.848L234.131 238.352L233.923 233.892L236.798 233.876L257.237 233.752L276.715 233.629L279.685 233.612C298.309 256.469 313.677 275.046 306.356 293.836Z" fill="#2F2E41"/>
<path d="M279.404 233.332L233.924 238.374L232.239 207.002C226.902 193.42 230.425 181.296 241.503 170.417L243.755 161.523C244.346 159.189 245.567 157.061 247.286 155.371C249.004 153.68 251.155 152.493 253.503 151.937C260.948 147.677 269.381 145.646 278.843 145.938C282.622 147.41 285.826 150.056 287.982 153.484C290.138 156.913 291.132 160.942 290.816 164.978C288.859 189.633 285.346 212.712 279.404 233.332Z" fill="#2F99AE"/>
<path d="M243.026 100.989C243.026 100.989 233.176 104.576 232.923 117.615C232.909 119.809 233.203 121.994 233.795 124.107C234.434 126.504 234.947 131.703 230.651 138.634C227.845 143.133 225.308 147.794 223.053 152.592L234.144 153.659L235.978 135.315C236.867 126.421 239.064 117.706 242.497 109.451L242.569 109.279C242.569 109.279 247.657 118.103 257.328 117.831L253.777 114.482C253.777 114.482 265.889 119.033 272.476 119.947C273.227 120.051 273.936 120.358 274.526 120.835C275.116 121.311 275.564 121.94 275.822 122.651C276.081 123.363 276.14 124.132 275.993 124.875C275.845 125.618 275.498 126.307 274.988 126.867C274.949 126.909 274.91 126.952 274.869 126.994C270.842 131.246 262.825 141.128 267.874 148.573C272.924 156.018 268.837 158.202 268.837 158.202L276.319 153.854L279.714 151.689L279.792 154.446L297.694 151.873C297.694 151.873 302.509 151.048 291.817 139.623C291.817 139.623 288.953 135.15 290.039 131.192C290.938 128.182 291.107 125.002 290.532 121.914C287.846 109.059 278.013 83.628 243.026 100.989Z" fill="#2F2E41"/>
<path d="M0.416814 180.69C0.272998 180.728 0.15032 180.822 0.0757022 180.951C0.00108416 181.079 -0.0193818 181.232 0.0188044 181.376L15.3419 238.757C15.3804 238.901 15.4743 239.023 15.6032 239.098C15.732 239.172 15.8852 239.193 16.029 239.155L59.434 227.616C59.5778 227.578 59.7005 227.484 59.7751 227.355C59.8497 227.227 59.8701 227.074 59.832 226.93L44.5089 169.549C44.4704 169.405 44.3764 169.283 44.2476 169.208C44.1188 169.134 43.9656 169.113 43.8217 169.152L0.416814 180.69Z" fill="#F2F2F2"/>
<path d="M11.083 190.166C10.4846 190.326 10.1772 191.126 10.3974 191.951C10.6177 192.776 11.2836 193.318 11.8821 193.159L40.0953 185.659C40.6938 185.5 41.0011 184.699 40.7809 183.874C40.5606 183.049 39.8947 182.507 39.2962 182.666L11.083 190.166Z" fill="white"/>
<path d="M12.8174 196.663C12.2189 196.822 11.9116 197.622 12.1318 198.447C12.3521 199.272 13.018 199.814 13.6165 199.655L41.8297 192.155C42.4281 191.996 42.7355 191.195 42.5153 190.37C42.295 189.545 41.6291 189.003 41.0306 189.162L12.8174 196.663Z" fill="white"/>
<path d="M14.5518 203.159C13.9533 203.318 13.6459 204.118 13.8662 204.943C14.0864 205.768 14.7524 206.31 15.3509 206.151L43.5641 198.651C44.1625 198.492 44.4699 197.691 44.2496 196.866C44.0294 196.042 43.3634 195.499 42.765 195.659L14.5518 203.159Z" fill="white"/>
<path d="M16.2862 209.655C15.6877 209.814 15.3803 210.615 15.6006 211.439C15.8208 212.264 16.4868 212.806 17.0852 212.647L45.2984 205.147C45.8969 204.988 46.2043 204.187 45.984 203.362C45.7637 202.538 45.0978 201.996 44.4993 202.155L16.2862 209.655Z" fill="white"/>
<path d="M18.0215 216.151C17.423 216.31 17.1157 217.111 17.3359 217.935C17.5562 218.76 18.2221 219.302 18.8206 219.143L47.0338 211.643C47.6322 211.484 47.9396 210.683 47.7194 209.859C47.4991 209.034 46.8332 208.492 46.2347 208.651L18.0215 216.151Z" fill="white"/>
<path d="M19.7559 222.647C19.1574 222.806 18.85 223.607 19.0703 224.432C19.2905 225.256 19.9565 225.798 20.555 225.639L48.7682 218.139C49.3666 217.98 49.674 217.179 49.4537 216.355C49.2335 215.53 48.5675 214.988 47.9691 215.147L19.7559 222.647Z" fill="white"/>
<path d="M2.00973 139.281C1.87848 139.351 1.78045 139.471 1.73717 139.613C1.69389 139.755 1.70889 139.908 1.77887 140.039L29.8103 192.424C29.8806 192.555 30 192.653 30.1425 192.696C30.2849 192.739 30.4387 192.725 30.5701 192.655L70.1953 171.547C70.3266 171.477 70.4246 171.357 70.4679 171.215C70.5112 171.073 70.4962 170.92 70.4262 170.789L42.3947 118.404C42.3245 118.273 42.205 118.175 42.0626 118.132C41.9201 118.088 41.7663 118.103 41.6349 118.173L2.00973 139.281Z" fill="#E6E6E6"/>
<path d="M5.69185 140.812L31.3435 188.748L66.5109 170.015L40.8593 122.078L5.69185 140.812ZM3.46344 141.999L3.46837 141.996L3.46289 141.999L3.46344 141.999Z" fill="white"/>
<path d="M14.5593 146.082C14.013 146.373 13.8966 147.223 14.2996 147.976C14.7025 148.729 15.4748 149.105 16.0211 148.814L41.7775 135.094C42.3238 134.803 42.4401 133.953 42.0372 133.2C41.6343 132.447 40.862 132.071 40.3157 132.362L14.5593 146.082Z" fill="#2F99AE"/>
<path d="M17.7321 152.012C17.1858 152.303 17.0695 153.153 17.4724 153.906C17.8753 154.659 18.6476 155.035 19.1939 154.744L44.9503 141.024C45.4967 140.733 45.613 139.883 45.2101 139.13C44.8071 138.377 44.0348 138.001 43.4885 138.292L17.7321 152.012Z" fill="#2F99AE"/>
<path d="M20.906 157.943C20.3596 158.234 20.2433 159.083 20.6462 159.836C21.0492 160.589 21.8214 160.966 22.3678 160.675L48.1242 146.954C48.6705 146.663 48.7869 145.814 48.3839 145.061C47.981 144.308 47.2087 143.931 46.6624 144.222L20.906 157.943Z" fill="#2F99AE"/>
<path d="M24.0798 163.873C23.5335 164.164 23.4171 165.014 23.8201 165.767C24.223 166.52 24.9953 166.896 25.5416 166.605L51.298 152.885C51.8443 152.594 51.9606 151.744 51.5577 150.991C51.1548 150.238 50.3825 149.862 49.8362 150.153L24.0798 163.873Z" fill="#2F99AE"/>
<path d="M27.2526 169.803C26.7063 170.094 26.59 170.944 26.9929 171.697C27.3959 172.45 28.1681 172.826 28.7145 172.535L54.4709 158.815C55.0172 158.524 55.1335 157.674 54.7306 156.921C54.3277 156.168 53.5554 155.792 53.0091 156.083L27.2526 169.803Z" fill="#2F99AE"/>
<path d="M30.4265 175.734C29.8801 176.025 29.7638 176.874 30.1668 177.627C30.5697 178.38 31.342 178.757 31.8883 178.466L57.6447 164.745C58.191 164.454 58.3073 163.605 57.9044 162.852C57.5015 162.099 56.7292 161.722 56.1829 162.013L30.4265 175.734Z" fill="#2F99AE"/>
<path d="M387.052 273.15C386.924 273.075 386.771 273.053 386.627 273.09C386.483 273.127 386.359 273.219 386.283 273.347L356.004 324.471C355.928 324.599 355.906 324.752 355.943 324.896C355.981 325.04 356.073 325.163 356.201 325.239L394.873 348.04C395.001 348.115 395.154 348.137 395.298 348.1C395.442 348.063 395.566 347.97 395.642 347.843L425.922 296.718C425.997 296.59 426.019 296.438 425.982 296.294C425.945 296.15 425.852 296.027 425.724 295.951L387.052 273.15Z" fill="#E6E6E6"/>
<path d="M387.657 277.085L359.948 323.869L394.269 344.105L421.978 297.321L387.657 277.085ZM385.482 275.803L385.487 275.806L385.481 275.803L385.482 275.803Z" fill="white"/>
<path d="M387.754 287.382C387.221 287.068 386.433 287.411 385.998 288.145C385.562 288.88 385.642 289.734 386.175 290.048L411.311 304.869C411.845 305.184 412.632 304.841 413.068 304.106C413.503 303.371 413.424 302.517 412.891 302.203L387.754 287.382Z" fill="#2F99AE"/>
<path d="M384.326 293.17C383.793 292.856 383.005 293.199 382.57 293.933C382.135 294.668 382.214 295.522 382.747 295.837L407.884 310.657C408.417 310.972 409.205 310.629 409.64 309.894C410.075 309.159 409.996 308.306 409.463 307.991L384.326 293.17Z" fill="#2F99AE"/>
<path d="M380.899 298.958C380.365 298.643 379.578 298.986 379.142 299.721C378.707 300.455 378.786 301.309 379.319 301.624L404.456 316.444C404.989 316.759 405.777 316.416 406.212 315.681C406.648 314.947 406.568 314.093 406.035 313.778L380.899 298.958Z" fill="#2F99AE"/>
<path d="M377.471 304.746C376.938 304.431 376.15 304.774 375.714 305.509C375.279 306.244 375.359 307.097 375.892 307.412L401.028 322.232C401.561 322.547 402.349 322.204 402.785 321.469C403.22 320.735 403.141 319.881 402.607 319.566L377.471 304.746Z" fill="#2F99AE"/>
<path d="M374.042 310.533C373.509 310.218 372.721 310.561 372.286 311.296C371.851 312.031 371.93 312.884 372.463 313.199L397.6 328.02C398.133 328.334 398.921 327.991 399.356 327.257C399.791 326.522 399.712 325.668 399.179 325.353L374.042 310.533Z" fill="#2F99AE"/>
<path d="M370.614 316.321C370.081 316.006 369.293 316.349 368.858 317.084C368.423 317.819 368.502 318.673 369.035 318.987L394.172 333.808C394.705 334.122 395.493 333.78 395.928 333.045C396.363 332.31 396.284 331.456 395.751 331.142L370.614 316.321Z" fill="#2F99AE"/>
<path d="M247.399 180.111L246.815 183.719L240.661 221.568L236.798 233.876L235.44 238.206L234.3 241.848L220.448 285.993L216.647 294.902C214.562 295.672 212.77 297.072 211.521 298.908C210.273 300.744 209.631 302.923 209.685 305.141C209.739 307.358 210.486 309.504 211.822 311.277C213.158 313.05 215.016 314.362 217.136 315.03C219.256 315.698 221.533 315.688 223.647 315.002C225.761 314.315 227.608 312.987 228.928 311.202C230.248 309.417 230.977 307.265 231.011 305.047C231.045 302.829 230.384 300.656 229.12 298.831L256.232 235.904L257.236 233.753L260.313 227.17L266.125 183.422L266.49 180.672L247.399 180.111Z" fill="#FFB8B8"/>
<path d="M269.859 184.593C261.035 181.429 252.57 181.093 244.592 184.593L247.196 162.074C247.1 159.262 248.114 156.525 250.02 154.452C251.926 152.378 254.572 151.133 257.388 150.986C260.239 150.836 263.033 151.822 265.155 153.728C267.277 155.633 268.553 158.302 268.703 161.146L268.705 161.183L269.859 184.593Z" fill="#2F99AE"/>
</svg>
