<svg width="467" height="338" viewBox="0 0 467 338" fill="none" xmlns="http://www.w3.org/2000/svg">
<g clip-path="url(#clip0_605_1667)">
<path d="M69.2319 239.598C68.8488 239.018 68.3431 238.528 67.7505 238.164C67.158 237.801 66.4929 237.571 65.8022 237.492C65.1115 237.414 64.412 237.488 63.7529 237.709C63.0938 237.93 62.4911 238.293 61.9874 238.773L46.9717 231.014L47.9051 239.755L62.0212 245.782C62.8821 246.576 64.0039 247.026 65.1741 247.047C66.3443 247.068 67.4816 246.659 68.3704 245.897C69.2592 245.134 69.8378 244.072 69.9966 242.911C70.1554 241.751 69.8833 240.572 69.2319 239.598Z" fill="#A0616A"/>
<path d="M55.8876 243.116C55.6159 243.241 55.321 243.307 55.0221 243.31C54.7232 243.314 54.427 243.254 54.1527 243.135L39.8899 236.941C35.0131 234.824 31.0705 231.006 28.7954 226.197L21.2971 210.353C20.7438 209.641 20.336 208.827 20.097 207.958C19.8581 207.088 19.7927 206.18 19.9047 205.285C20.0167 204.39 20.3037 203.526 20.7495 202.742C21.1952 201.959 21.791 201.27 22.5026 200.717C23.2142 200.164 24.0277 199.757 24.8967 199.519C25.7656 199.281 26.6729 199.216 27.5667 199.33C28.4605 199.443 29.3232 199.731 30.1056 200.178C30.888 200.626 31.5746 201.223 32.1262 201.936L45.3064 226.416L57.4765 235.619C57.8249 235.883 58.0836 236.249 58.2178 236.665C58.352 237.082 58.3551 237.53 58.2268 237.948L57.0323 241.811C56.904 242.225 56.6526 242.59 56.3117 242.857C56.1811 242.96 56.0387 243.047 55.8876 243.116Z" fill="#CCCCCC"/>
<path d="M20.9677 191.719C27.382 191.719 32.5819 186.514 32.5819 180.093C32.5819 173.672 27.382 168.466 20.9677 168.466C14.5534 168.466 9.35352 173.672 9.35352 180.093C9.35352 186.514 14.5534 191.719 20.9677 191.719Z" fill="#A0616A"/>
<path d="M25.6713 332.611L31.4682 332.611L34.2265 310.226L25.6699 310.227L25.6713 332.611Z" fill="#A0616A"/>
<path d="M42.6494 337.999L24.4294 338L24.4291 330.953L35.6095 330.952C37.4765 330.952 39.2671 331.695 40.5873 333.016C41.9076 334.338 42.6493 336.13 42.6494 337.999Z" fill="#2F2E41"/>
<path d="M6.75728 332.611L12.5542 332.611L15.3124 310.226L6.75586 310.227L6.75728 332.611Z" fill="#A0616A"/>
<path d="M23.7344 337.999L5.51436 338L5.51404 330.953L16.6945 330.952C18.5615 330.952 20.3521 331.695 21.6723 333.016C22.9925 334.338 23.7343 336.13 23.7344 337.999Z" fill="#2F2E41"/>
<path d="M4.73208 326.204C4.53233 325.975 4.38364 325.707 4.29596 325.417C4.20829 325.126 4.18367 324.82 4.22375 324.519L14.3737 248.313L39.5912 252.601L42.2825 250.984L35.323 323.289C35.2651 323.777 35.0408 324.23 34.688 324.572C34.3351 324.914 33.8753 325.123 33.3861 325.165L25.7503 325.802C25.4467 325.827 25.1412 325.787 24.8545 325.684C24.5678 325.581 24.3065 325.418 24.0883 325.205C23.8701 324.992 23.7002 324.735 23.5899 324.451C23.4796 324.166 23.4316 323.862 23.4491 323.557L25.426 289.123C25.4295 289.065 25.4112 289.007 25.3746 288.961C25.338 288.915 25.2858 288.885 25.228 288.876C25.1703 288.866 25.111 288.878 25.0618 288.91C25.0126 288.942 24.977 288.991 24.9617 289.047L15.1813 325.355C15.059 325.807 14.7916 326.206 14.4203 326.491C14.049 326.776 13.5945 326.93 13.1268 326.931H6.3331C6.02988 326.931 5.73016 326.866 5.45404 326.741C5.17791 326.615 4.93176 326.432 4.73208 326.204Z" fill="#2F2E41"/>
<path d="M22.1966 253.648C21.9072 253.385 21.5351 253.233 21.145 253.217C20.7549 253.2 20.3714 253.321 20.0611 253.559L15.0194 257.484C14.7451 257.698 14.4224 257.842 14.0797 257.902C13.737 257.962 13.3847 257.938 13.0539 257.83C12.723 257.722 12.4236 257.535 12.182 257.284C11.9403 257.033 11.7639 256.727 11.668 256.392C9.19502 247.722 3.59217 225.899 4.97244 210.539C5.75483 201.832 13.2652 195.215 21.7144 195.77C27.4908 196.156 31.291 199.492 33.0094 205.685C37.2286 220.89 41.8654 248.782 42.752 254.22C42.822 254.641 42.763 255.075 42.5827 255.462C42.4024 255.85 42.1093 256.174 41.7417 256.392C39.3563 257.825 36.6309 258.593 33.8487 258.615C30.4822 258.615 26.4458 257.442 22.1966 253.648Z" fill="#CCCCCC"/>
<path d="M24.0985 259.057C24.1549 258.363 24.0588 257.666 23.8168 257.013C23.5748 256.361 23.1929 255.77 22.6979 255.281C22.203 254.792 21.607 254.418 20.952 254.185C20.297 253.952 19.5989 253.865 18.9069 253.932L11.8745 238.55L7.2207 246.005L14.6123 259.468C14.8004 260.625 15.4057 261.672 16.3135 262.411C17.2214 263.151 18.3686 263.531 19.5379 263.48C20.7072 263.43 21.8173 262.951 22.6578 262.136C23.4984 261.321 24.0109 260.225 24.0985 259.057Z" fill="#A0616A"/>
<path d="M11.4297 253.581C11.139 253.511 10.8662 253.381 10.629 253.199C10.3919 253.017 10.1956 252.787 10.0531 252.524L2.64837 238.839C0.116049 234.161 -0.63247 228.72 0.542042 223.531L4.40939 206.431C4.4129 205.53 4.5939 204.637 4.94206 203.806C5.29022 202.974 5.7987 202.219 6.43843 201.584C7.07817 200.95 7.83661 200.447 8.67041 200.106C9.50421 199.765 10.397 199.591 11.2978 199.596C12.1985 199.6 13.0896 199.782 13.9201 200.132C14.7505 200.481 15.504 200.991 16.1375 201.632C16.771 202.273 17.2721 203.033 17.6121 203.868C17.9521 204.703 18.1244 205.597 18.1192 206.498L13.3992 233.903L17.3021 248.663C17.4131 249.086 17.3915 249.534 17.2402 249.944C17.089 250.355 16.8153 250.71 16.4564 250.96L13.1354 253.261C12.7791 253.507 12.3562 253.639 11.9231 253.639C11.7569 253.639 11.5913 253.62 11.4297 253.581Z" fill="#CCCCCC"/>
<path opacity="0.2" d="M17.1767 218.056L12.9209 236.044L19.0682 251.192L14.8124 236.517L17.1767 218.056Z" fill="black"/>
<path d="M14.3399 189.653C13.3067 189.672 12.2801 189.486 11.3192 189.106C10.8964 188.943 10.4575 188.809 10.0355 188.646C6.30845 187.204 3.85332 183.231 3.76539 179.232C3.67746 175.233 5.74609 171.352 8.81783 168.794C11.8896 166.236 15.8683 164.923 19.8522 164.62C24.1436 164.292 28.9759 165.382 31.3739 168.96C32.0122 169.912 32.4586 171.067 32.0803 172.217C31.9671 172.564 31.7647 172.875 31.4936 173.119C30.4227 174.073 29.3551 173.356 28.2634 173.293C26.7628 173.205 25.4151 174.421 24.9307 175.846C24.4463 177.27 24.6595 178.838 25.0506 180.291C25.3486 181.165 25.5364 182.073 25.6098 182.994C25.6414 183.456 25.5546 183.918 25.3578 184.337C25.161 184.755 24.8606 185.117 24.4851 185.387C23.5474 185.954 22.316 185.626 21.3778 185.059C20.4396 184.493 19.629 183.705 18.6155 183.288C17.6021 182.872 16.2406 182.964 15.6507 183.888C15.4633 184.225 15.3364 184.591 15.2759 184.972C14.7471 187.383 14.8687 187.241 14.3399 189.653Z" fill="#2F2E41"/>
<path d="M358.12 109.103H71.0884C69.995 109.103 68.9468 109.539 68.1737 110.313C67.4006 111.086 66.9658 112.136 66.9648 113.23V307.937C66.9658 309.032 67.4006 310.081 68.1737 310.855C68.9468 311.629 69.9951 312.064 71.0884 312.065H358.12C358.716 312.065 359.305 311.936 359.847 311.685C360.388 311.435 360.869 311.071 361.255 310.617C361.288 310.581 361.318 310.543 361.345 310.503C361.591 310.202 361.791 309.865 361.936 309.504C362.144 309.008 362.25 308.475 362.248 307.937V186.731H361.071V307.937C361.071 308.513 360.902 309.076 360.584 309.556C360.301 309.978 359.917 310.323 359.468 310.56C359.051 310.775 358.589 310.887 358.12 310.886H71.0884C70.3073 310.885 69.5585 310.574 69.0062 310.022C68.4538 309.469 68.1431 308.719 68.1422 307.937V113.23C68.1431 112.448 68.4538 111.699 69.0062 111.146C69.5585 110.593 70.3073 110.282 71.0884 110.281H358.12C358.902 110.281 359.652 110.592 360.205 111.145C360.758 111.698 361.07 112.448 361.071 113.23V139.394H362.248V113.23C362.247 112.135 361.812 111.085 361.038 110.311C360.264 109.537 359.214 109.103 358.12 109.103Z" fill="#2F99AE" fill-opacity="0.4"/>
<path d="M361.656 125.648H67.5518V126.828H361.656V125.648Z" fill="#2F99AE" fill-opacity="0.4"/>
<path d="M77.5715 121.495C79.5245 121.495 81.1078 119.91 81.1078 117.955C81.1078 115.999 79.5245 114.415 77.5715 114.415C75.6184 114.415 74.0352 115.999 74.0352 117.955C74.0352 119.91 75.6184 121.495 77.5715 121.495Z" fill="#CCCCCC"/>
<path d="M87.7385 121.495C89.6915 121.495 91.2748 119.91 91.2748 117.955C91.2748 115.999 89.6915 114.415 87.7385 114.415C85.7854 114.415 84.2021 115.999 84.2021 117.955C84.2021 119.91 85.7854 121.495 87.7385 121.495Z" fill="#CCCCCC"/>
<path d="M97.9055 121.495C99.8585 121.495 101.442 119.91 101.442 117.955C101.442 115.999 99.8585 114.415 97.9055 114.415C95.9524 114.415 94.3691 115.999 94.3691 117.955C94.3691 119.91 95.9524 121.495 97.9055 121.495Z" fill="#CCCCCC"/>
<path d="M168.936 288.2C167.718 288.194 166.522 287.885 165.454 287.299C164.386 286.714 163.481 285.871 162.821 284.848C162.16 283.824 161.765 282.651 161.672 281.436C161.578 280.221 161.788 279.002 162.284 277.889L170.709 259.073C164.074 253.198 158.764 245.976 155.132 237.888C151.501 229.8 149.631 221.031 149.647 212.163C149.647 177.52 177.801 149.334 212.409 149.334C247.017 149.334 275.172 177.52 275.172 212.163C275.172 246.807 247.017 274.993 212.409 274.993C206.355 274.986 200.334 274.099 194.535 272.357L173.034 286.928C171.826 287.754 170.398 288.197 168.936 288.2ZM212.409 158.101C201.209 158.095 190.284 161.577 181.148 168.064C172.013 174.552 165.121 183.723 161.426 194.308C157.731 204.893 157.417 216.366 160.527 227.137C163.638 237.908 170.018 247.444 178.785 254.422L181.439 256.541L172.374 276.789L193.176 262.691L195.23 263.382C202.65 265.877 210.524 266.728 218.305 265.874C226.086 265.021 233.589 262.484 240.293 258.439C246.997 254.394 252.742 248.938 257.131 242.45C261.519 235.961 264.446 228.595 265.708 220.861C266.97 213.128 266.537 205.212 264.439 197.663C262.341 190.114 258.628 183.111 253.558 177.141C248.488 171.171 242.182 166.376 235.077 163.089C227.971 159.801 220.237 158.099 212.409 158.101Z" fill="#768093"/>
<path d="M212.409 218.008C217.246 218.008 221.166 214.083 221.166 209.241C221.166 204.399 217.246 200.474 212.409 200.474C207.572 200.474 203.651 204.399 203.651 209.241C203.651 214.083 207.572 218.008 212.409 218.008Z" fill="#768093"/>
<path d="M187.596 218.008C192.433 218.008 196.354 214.083 196.354 209.241C196.354 204.399 192.433 200.474 187.596 200.474C182.76 200.474 178.839 204.399 178.839 209.241C178.839 214.083 182.76 218.008 187.596 218.008Z" fill="#768093"/>
<path d="M237.222 218.008C242.059 218.008 245.98 214.083 245.98 209.241C245.98 204.399 242.059 200.474 237.222 200.474C232.386 200.474 228.465 204.399 228.465 209.241C228.465 214.083 232.386 218.008 237.222 218.008Z" fill="#768093"/>
<path d="M432.634 174.542H349.409C348.406 174.542 347.443 174.143 346.734 173.433C346.025 172.723 345.626 171.76 345.626 170.755C345.626 169.751 346.025 168.788 346.734 168.077C347.443 167.367 348.406 166.968 349.409 166.968H432.634C433.637 166.968 434.599 167.367 435.309 168.077C436.018 168.788 436.417 169.751 436.417 170.755C436.417 171.76 436.018 172.723 435.309 173.433C434.599 174.143 433.637 174.542 432.634 174.542Z" fill="#2F99AE" fill-opacity="0.2"/>
<path d="M378.254 158.447H349.409C348.406 158.447 347.443 158.048 346.734 157.338C346.025 156.628 345.626 155.665 345.626 154.661C345.626 153.656 346.025 152.693 346.734 151.983C347.443 151.273 348.406 150.874 349.409 150.874H378.254C379.257 150.874 380.22 151.273 380.929 151.983C381.638 152.693 382.037 153.656 382.037 154.661C382.037 155.665 381.638 156.628 380.929 157.338C380.22 158.048 379.257 158.447 378.254 158.447Z" fill="#2F99AE" fill-opacity="0.2"/>
<path d="M311.713 179.157C320.593 179.157 327.791 171.951 327.791 163.062C327.791 154.173 320.593 146.967 311.713 146.967C302.834 146.967 295.636 154.173 295.636 163.062C295.636 171.951 302.834 179.157 311.713 179.157Z" fill="#2F99AE"/>
<path d="M440.977 138.447H291.077C288.946 138.45 286.903 139.299 285.396 140.807C283.889 142.316 283.041 144.361 283.038 146.494V179.63C283.041 181.763 283.889 183.809 285.396 185.317C286.903 186.826 288.946 187.674 291.077 187.677H440.977C443.108 187.674 445.151 186.826 446.658 185.317C448.164 183.809 449.012 181.763 449.015 179.63V146.494C449.012 144.361 448.164 142.316 446.658 140.807C445.151 139.299 443.108 138.45 440.977 138.447ZM448.07 179.63C448.067 181.513 447.319 183.317 445.99 184.648C444.66 185.979 442.857 186.728 440.977 186.731H291.077C289.196 186.728 287.394 185.979 286.064 184.648C284.734 183.317 283.986 181.513 283.984 179.63V146.494C283.986 144.612 284.734 142.807 286.064 141.476C287.394 140.145 289.196 139.396 291.077 139.394H440.977C442.857 139.396 444.66 140.145 445.99 141.476C447.319 142.807 448.067 144.612 448.07 146.494V179.63Z" fill="#44D2A8" fill-opacity="0.4"/>
<path d="M448.069 151.701C454.076 151.701 458.945 146.827 458.945 140.814C458.945 134.801 454.076 129.926 448.069 129.926C442.063 129.926 437.193 134.801 437.193 140.814C437.193 146.827 442.063 151.701 448.069 151.701Z" fill="#2F99AE"/>
<path d="M447.735 146.937C447.691 146.893 447.656 146.841 447.633 146.783C447.609 146.726 447.597 146.664 447.597 146.602V134.552C447.597 134.426 447.646 134.306 447.735 134.217C447.824 134.128 447.944 134.079 448.069 134.079C448.195 134.079 448.315 134.128 448.404 134.217C448.492 134.306 448.542 134.426 448.542 134.552V146.602C448.542 146.696 448.515 146.787 448.463 146.865C448.411 146.943 448.337 147.003 448.25 147.039C448.164 147.075 448.069 147.084 447.977 147.066C447.886 147.048 447.801 147.003 447.735 146.937Z" fill="white"/>
<path d="M441.717 140.912C441.65 140.845 441.605 140.761 441.587 140.669C441.569 140.577 441.578 140.482 441.614 140.396C441.65 140.309 441.711 140.235 441.788 140.183C441.866 140.131 441.957 140.104 442.051 140.104H454.088C454.214 140.104 454.334 140.153 454.423 140.242C454.511 140.331 454.561 140.451 454.561 140.577C454.561 140.702 454.511 140.823 454.423 140.912C454.334 141 454.214 141.05 454.088 141.05H442.051C441.989 141.05 441.927 141.038 441.87 141.014C441.813 140.991 441.76 140.956 441.717 140.912Z" fill="white"/>
<path d="M461.089 285.526H438.387C438.387 286.18 414.989 286.71 414.989 286.71C414.622 286.987 414.287 287.304 413.992 287.657C413.103 288.718 412.617 290.059 412.62 291.444V292.39C412.621 293.959 413.244 295.464 414.352 296.574C415.46 297.683 416.964 298.307 418.531 298.307H461.089C462.657 298.306 464.159 297.682 465.267 296.573C466.376 295.463 466.999 293.959 467 292.39V291.444C466.998 289.875 466.375 288.371 465.267 287.262C464.158 286.153 462.656 285.529 461.089 285.526Z" fill="#3F3D56"/>
<path d="M443.118 298.072H436.971V337.835H443.118V298.072Z" fill="#3F3D56"/>
<path d="M460.613 337.619C460.613 338.284 451.298 337.876 439.807 337.876C428.316 337.876 419.001 338.284 419.001 337.619C419.001 336.954 428.316 331.682 439.807 331.682C451.298 331.682 460.613 336.954 460.613 337.619Z" fill="#3F3D56"/>
<path d="M442.017 232.24C449.329 232.24 455.257 226.306 455.257 218.985C455.257 211.665 449.329 205.731 442.017 205.731C434.704 205.731 428.776 211.665 428.776 218.985C428.776 226.306 434.704 232.24 442.017 232.24Z" fill="#2F2E41"/>
<path d="M409.066 332.389L403.269 332.389L400.511 310.004L409.067 310.004L409.066 332.389Z" fill="#FFB8B8"/>
<path d="M399.128 330.73H410.309V337.777H392.089C392.089 335.909 392.831 334.116 394.151 332.795C395.471 331.473 397.261 330.73 399.128 330.73Z" fill="#2F2E41"/>
<path d="M400.017 329.15L394.486 327.412L398.549 305.228L406.713 307.792L400.017 329.15Z" fill="#FFB8B8"/>
<path d="M391.031 324.589L401.699 327.94L399.591 334.664L382.207 329.203C382.766 327.419 384.009 325.932 385.664 325.066C387.319 324.201 389.25 324.029 391.031 324.589Z" fill="#2F2E41"/>
<path d="M445.563 281.646C445.429 280.518 445.188 279.405 444.844 278.323L443.761 276.959L440.943 273.418L440.82 273.423C440.612 273.433 439.747 273.48 438.408 273.584H438.394C437.567 273.65 436.555 273.736 435.406 273.844C435.103 273.878 434.786 273.906 434.46 273.939V278.881H440.371C440.658 278.882 440.935 278.986 441.151 279.176C441.367 279.366 441.506 279.628 441.544 279.913C441.548 279.965 441.553 280.013 441.553 280.065C441.553 280.378 441.428 280.679 441.207 280.901C440.985 281.123 440.684 281.248 440.371 281.248H406.04C405.603 281.539 405.183 281.855 404.783 282.195C403.573 283.132 402.702 284.438 402.3 285.915C400.295 294.739 396.64 311.193 395.562 316.027C395.483 316.391 395.501 316.769 395.613 317.124C395.725 317.479 395.927 317.799 396.2 318.053C396.401 318.24 396.637 318.387 396.895 318.483L401.16 320.083C401.336 320.148 401.518 320.191 401.704 320.211C401.728 320.211 401.747 320.216 401.771 320.216C401.814 320.22 401.859 320.221 401.903 320.221C402.334 320.219 402.755 320.087 403.11 319.842C403.465 319.597 403.738 319.251 403.894 318.848L407.26 310.005L412.448 296.372L414.5 290.981C416.879 291.539 436.834 295.96 443.515 288.836C444.175 288.134 444.694 287.313 445.048 286.417C445.61 284.894 445.787 283.254 445.563 281.646Z" fill="#2F2E41"/>
<path d="M451.35 282.934C451.246 282.512 451.128 282.077 450.991 281.637L447.09 276.732L446.967 276.737C446.721 276.751 445.553 276.813 443.761 276.96C441.728 277.13 438.886 277.405 435.694 277.835C435.599 277.845 435.5 277.859 435.405 277.873C435.093 277.916 434.776 277.958 434.46 278.006V278.882H440.37C440.658 278.882 440.935 278.987 441.151 279.177C441.367 279.366 441.506 279.628 441.543 279.913C441.548 279.966 441.553 280.013 441.553 280.065C441.553 280.379 441.428 280.68 441.206 280.902C440.985 281.124 440.684 281.248 440.37 281.248H419.479C418.567 281.547 417.687 281.859 416.845 282.195C412.429 283.947 409.123 286.242 408.447 289.229C408.22 290.233 407.969 291.336 407.705 292.51C406.721 296.874 405.525 302.219 404.442 307.076V307.08C404.219 308.084 403.997 309.059 403.784 310.006C402.881 314.077 402.115 317.528 401.709 319.341C401.699 319.393 401.69 319.44 401.68 319.492V319.501C401.633 319.868 401.679 320.241 401.813 320.585L401.817 320.59V320.595C401.947 320.925 402.159 321.216 402.432 321.442C402.615 321.593 402.821 321.713 403.042 321.797L407.307 323.397C407.545 323.486 407.796 323.533 408.05 323.535C408.405 323.535 408.755 323.446 409.066 323.274C409.513 323.032 409.859 322.637 410.041 322.162L419.224 298.039L420.647 294.294C423.026 294.853 442.981 299.27 449.662 292.15C450.982 290.72 451.736 288.857 451.781 286.91C451.827 285.571 451.682 284.232 451.35 282.934Z" fill="#2F2E41"/>
<path d="M450.826 241.173C450.75 241.083 450.67 240.993 450.585 240.908C449.325 239.582 447.77 238.574 446.047 237.966C444.323 237.358 442.48 237.167 440.669 237.41C439.089 237.617 437.523 237.926 435.982 238.333C433.992 238.845 432.17 239.868 430.696 241.301C429.547 242.415 428.643 243.757 428.04 245.24C427.437 246.723 427.148 248.315 427.192 249.916C427.211 250.565 427.215 251.227 427.206 251.899C427.206 252.212 427.201 252.529 427.197 252.846H431.859C432.061 252.846 432.263 252.869 432.46 252.917C433.029 253.053 433.535 253.377 433.898 253.836C434.261 254.296 434.459 254.864 434.46 255.45V277.471C434.777 277.561 435.094 277.651 435.406 277.745C435.505 277.779 435.6 277.807 435.694 277.835C435.803 277.869 435.912 277.902 436.016 277.935C436.976 278.233 437.913 278.549 438.829 278.882H440.371C440.658 278.882 440.935 278.987 441.151 279.177C441.367 279.366 441.506 279.628 441.544 279.913C441.865 280.041 442.177 280.169 442.484 280.297C443.577 280.751 444.612 281.206 445.563 281.646C446.844 282.233 447.984 282.792 448.939 283.279C449.24 283.432 449.572 283.513 449.909 283.516C450.351 283.514 450.782 283.372 451.138 283.109C451.212 283.054 451.283 282.996 451.351 282.934C451.604 282.696 451.795 282.4 451.908 282.072C452.021 281.744 452.052 281.393 451.999 281.05C451.51 277.331 451.368 273.575 451.573 269.831C451.705 266.683 451.989 263.454 452.358 260.335C452.557 258.645 452.779 256.988 453.011 255.393C453.233 253.869 453.469 252.406 453.701 251.024C454.005 249.271 453.904 247.472 453.406 245.764C452.907 244.057 452.025 242.486 450.826 241.173Z" fill="#2F99AE"/>
<path d="M431.443 241.561C431.2 241.457 430.951 241.37 430.696 241.301C429.435 240.961 428.095 241.086 426.92 241.654C425.744 242.221 424.812 243.193 424.293 244.392L421.044 251.899L420.638 252.846H431.859C432.061 252.845 432.263 252.869 432.459 252.917L432.838 252.041L434.275 248.718C434.846 247.393 434.869 245.895 434.338 244.553C433.807 243.211 432.766 242.135 431.443 241.561Z" fill="#2F99AE"/>
<path d="M441.532 233.713C447.946 233.713 453.146 228.508 453.146 222.086C453.146 215.665 447.946 210.46 441.532 210.46C435.118 210.46 429.918 215.665 429.918 222.086C429.918 228.508 435.118 233.713 441.532 233.713Z" fill="#FFB8B8"/>
<path d="M429.709 216.374C435.21 219.736 441.412 221.782 447.832 222.352L445.922 220.061C447.313 220.576 448.777 220.867 450.258 220.923C451.739 220.9 453.29 220.329 454.13 219.109C454.504 218.502 454.727 217.814 454.778 217.103C454.83 216.392 454.709 215.678 454.425 215.024C453.843 213.719 452.937 212.585 451.793 211.729C449.766 210.124 447.373 209.045 444.828 208.59C442.283 208.135 439.665 208.317 437.208 209.12C435.522 209.624 434.012 210.594 432.851 211.917C431.75 213.277 429.631 214.488 430.194 216.145L429.709 216.374Z" fill="#2F2E41"/>
<path d="M443.485 206.992C439.822 203.273 435.389 200.403 430.499 198.585C427.36 197.421 423.943 196.701 420.661 197.363C417.379 198.024 414.275 200.297 413.359 203.52C412.611 206.156 413.384 208.994 414.546 211.475C415.708 213.957 417.259 216.258 418.198 218.831C419.157 221.458 419.446 224.282 419.037 227.048C418.629 229.814 417.537 232.435 415.861 234.671C414.184 236.908 411.976 238.69 409.438 239.855C406.899 241.021 404.109 241.533 401.322 241.346C404.547 241.779 407.519 243.296 410.671 244.103C413.823 244.911 417.543 244.856 419.886 242.596C422.364 240.204 422.414 236.315 422.294 232.871C422.116 227.752 421.938 222.632 421.759 217.513C421.669 214.902 421.591 212.207 422.532 209.771C423.472 207.334 425.707 205.2 428.317 205.222C430.295 205.239 432.045 206.438 433.631 207.621C435.218 208.804 436.896 210.066 438.866 210.242C440.836 210.418 443.086 208.958 442.938 206.984L443.485 206.992Z" fill="#2F2E41"/>
<path d="M453.011 255.393L446.381 255.573L445.899 260.236L445.79 261.315L435.406 265.982L434.46 266.408V274.706L435.406 274.437L438.394 273.585H438.408L451.573 269.831L451.724 269.788C452.788 269.481 453.724 268.838 454.394 267.955C455.064 267.072 455.431 265.997 455.441 264.889L455.474 259.383L455.503 255.327L453.011 255.393Z" fill="#FFB8B8"/>
<path d="M455.167 246.171C455.079 244.73 454.422 243.383 453.341 242.426C452.261 241.47 450.845 240.982 449.405 241.071C447.965 241.159 446.62 241.817 445.664 242.898C444.709 243.98 444.222 245.398 444.31 246.839L445.033 258.654C445.053 258.965 445.141 259.268 445.29 259.541C445.44 259.814 445.647 260.051 445.899 260.235C446.299 260.534 446.791 260.68 447.289 260.647L452.358 260.335L453.895 260.24C454.175 260.226 454.449 260.156 454.701 260.033C454.953 259.91 455.178 259.737 455.361 259.525C455.402 259.48 455.44 259.433 455.474 259.383C455.775 258.98 455.922 258.484 455.89 257.982L455.167 246.171Z" fill="#2F99AE"/>
<path d="M436.016 277.935H435.406V277.873C435.094 277.916 434.777 277.959 434.46 278.006V278.882H438.829C437.912 278.55 436.974 278.235 436.016 277.935ZM436.016 277.935H435.406V277.873C435.094 277.916 434.777 277.959 434.46 278.006V278.882H438.829C437.912 278.55 436.974 278.235 436.016 277.935ZM440.371 277.935H435.406V255.45C435.404 254.68 435.153 253.931 434.69 253.317C434.227 252.702 433.577 252.255 432.838 252.041C432.521 251.946 432.191 251.898 431.859 251.899H389.774C388.834 251.901 387.932 252.275 387.268 252.941C386.603 253.606 386.229 254.508 386.228 255.45V278.645C386.228 279.586 386.602 280.489 387.267 281.155C387.932 281.821 388.834 282.195 389.774 282.195H440.371C440.895 282.194 441.4 282 441.79 281.65C442.18 281.3 442.427 280.818 442.485 280.297C442.494 280.22 442.499 280.143 442.499 280.065C442.498 279.5 442.274 278.959 441.875 278.56C441.476 278.16 440.935 277.936 440.371 277.935ZM441.553 280.065C441.553 280.379 441.429 280.68 441.207 280.902C440.985 281.124 440.685 281.248 440.371 281.248H389.774C389.084 281.248 388.423 280.974 387.935 280.485C387.448 279.997 387.174 279.335 387.173 278.645V255.45C387.174 254.759 387.448 254.097 387.935 253.609C388.423 253.121 389.084 252.847 389.774 252.846H431.859C432.062 252.846 432.263 252.869 432.46 252.917C433.029 253.053 433.536 253.377 433.898 253.837C434.261 254.296 434.459 254.864 434.46 255.45V278.882H440.371C440.658 278.882 440.936 278.987 441.151 279.177C441.367 279.367 441.507 279.628 441.544 279.914C441.548 279.966 441.553 280.013 441.553 280.065ZM436.016 277.935H435.406V277.873C435.094 277.916 434.777 277.959 434.46 278.006V278.882H438.829C437.912 278.55 436.974 278.235 436.016 277.935Z" fill="#3F3D56"/>
<path d="M410.815 269.888C412.382 269.888 413.652 268.616 413.652 267.048C413.652 265.479 412.382 264.208 410.815 264.208C409.248 264.208 407.978 265.479 407.978 267.048C407.978 268.616 409.248 269.888 410.815 269.888Z" fill="#2F99AE"/>
<path d="M157.397 33.7834C157.386 33.9997 157.392 34.2164 157.416 34.4317L142.567 46.9069L138.139 45.3019L134.846 51.6752L144.527 56.2884L160.761 38.0524C161.58 38.2013 162.426 38.0968 163.185 37.7529C163.944 37.4089 164.58 36.8419 165.009 36.127C165.438 35.4122 165.64 34.5836 165.587 33.7513C165.535 32.919 165.23 32.1225 164.714 31.4677C164.198 30.8129 163.495 30.3309 162.699 30.0857C161.903 29.8406 161.051 29.8439 160.256 30.0953C159.462 30.3467 158.763 30.8342 158.252 31.493C157.741 32.1518 157.443 32.9507 157.397 33.7834Z" fill="#FFB8B8"/>
<path d="M137.481 54.7324L123.142 49.5512C121.825 49.0755 120.751 48.0958 120.157 46.8277C119.562 45.5595 119.495 44.1067 119.97 42.7889C120.445 41.4711 121.423 40.3962 122.69 39.8007C123.957 39.2052 125.408 39.1379 126.725 39.6136L141.064 44.7948C141.281 44.8732 141.481 44.9938 141.652 45.1496C141.822 45.3053 141.961 45.4932 142.059 45.7025C142.157 45.9118 142.213 46.1384 142.224 46.3694C142.235 46.6003 142.2 46.8312 142.121 47.0486L139.733 53.6739C139.574 54.1128 139.247 54.4707 138.825 54.6691C138.403 54.8675 137.92 54.8903 137.481 54.7324Z" fill="#46D3D4"/>
<path d="M126.979 105.208L131.772 105.207L134.051 86.7031L126.979 86.7036L126.979 105.208Z" fill="#FFB8B8"/>
<path d="M141.014 109.662L125.952 109.662L125.952 103.837L135.194 103.837C136.738 103.837 138.218 104.45 139.309 105.543C140.4 106.635 141.014 108.117 141.014 109.662Z" fill="#2F2E41"/>
<path d="M115.136 99.01L119.056 101.769L131.553 87.9455L125.767 83.8735L115.136 99.01Z" fill="#FFB8B8"/>
<path d="M123.585 109.788L111.264 101.116L114.611 96.3509L122.172 101.672C123.434 102.561 124.292 103.915 124.557 105.437C124.822 106.959 124.473 108.524 123.585 109.788Z" fill="#2F2E41"/>
<path d="M137.465 71.8749C137.465 71.8749 149.424 70.4624 147.278 78.2311C145.131 85.9998 121.213 92.7091 121.213 92.7091L137.465 71.8749Z" fill="#FFB8B8"/>
<path d="M129.234 32.2348C134.537 32.2348 138.835 27.9319 138.835 22.624C138.835 17.3161 134.537 13.0132 129.234 13.0132C123.932 13.0132 119.634 17.3161 119.634 22.624C119.634 27.9319 123.932 32.2348 129.234 32.2348Z" fill="#FFB8B8"/>
<path d="M98.6168 91.1181C93.1539 84.7503 91.2422 74.9772 99.9542 66.8489C102.106 64.8908 104.542 63.2712 107.18 62.0455L114.201 42.3886C114.93 40.3359 116.268 38.5547 118.034 37.2825C119.801 36.0103 121.913 35.3077 124.089 35.2683C126.202 35.177 128.291 35.7428 130.07 36.8878C131.848 38.0329 133.229 39.7011 134.023 41.6633C134.88 43.6596 134.978 45.901 134.298 47.9647C132.208 54.4807 129.463 60.7678 126.106 66.7293L126.469 69.6369L144.217 71.2159L144.051 71.4853C143.965 71.6259 135.279 84.8741 124.167 93.6677C120.368 96.6743 116.439 97.9205 112.731 97.9201C107.108 97.9197 101.994 95.0541 98.6168 91.1181Z" fill="#46D3D4"/>
<path d="M96.9425 25.6394C98.641 23.6133 99.3695 20.9631 99.9557 18.384C100.883 14.3032 101.601 10.0834 103.661 6.44173C105.721 2.80009 109.507 -0.217381 113.681 0.0123035C117.832 0.240677 121.187 3.58347 122.968 7.38691C123.4 7.21922 123.861 7.14409 124.324 7.1664C124.786 7.18871 125.238 7.30795 125.651 7.51641C126.935 8.22015 127.415 10.2204 126.346 11.2218C127.47 10.686 128.694 10.3931 129.939 10.3621C131.183 10.331 132.42 10.5625 133.569 11.0415C135.047 11.6713 136.322 12.6968 137.255 14.0054C138.188 15.314 138.743 16.8548 138.858 18.4584C138.902 19.1093 138.813 19.7624 138.595 20.3773C138.378 20.9922 138.036 21.5559 137.592 22.0333C135.75 23.9316 133.145 23.2768 130.828 22.7932C128.64 22.3364 125.975 22.2131 124.742 24.3001C124.257 25.1697 124.121 26.1921 124.362 27.1586C124.834 29.242 126.375 30.6931 127.87 32.0819L128.115 32.5366C122.837 33.5669 117.073 29.9585 115.689 24.757C114.304 19.5554 117.51 13.5547 122.6 11.8194C122.261 11.83 121.926 11.7498 121.628 11.5872C121.331 11.4245 121.082 11.1853 120.908 10.8943C120.734 10.6032 120.64 10.2709 120.637 9.93158C120.634 9.59229 120.722 9.25836 120.891 8.96428C119.482 8.1741 117.887 7.77583 116.273 7.81081C113.643 7.98349 111.368 9.85713 110 12.1114C108.631 14.3656 108.012 16.9821 107.384 19.544C106.756 22.1058 106.077 24.7167 104.614 26.9106C103.6 28.43 102.246 29.6913 100.659 30.5939C99.0726 31.4964 97.2971 32.0152 95.4744 32.1087C93.6517 32.2023 91.8324 31.8682 90.1617 31.1329C88.4909 30.3976 87.015 29.2816 85.8516 27.874C87.6901 28.7664 89.7701 29.0311 91.7732 28.6275C93.7762 28.2239 95.592 27.1743 96.9425 25.6394Z" fill="#2F2E41"/>
<path d="M167.456 51.8312C175.163 51.8312 181.411 45.5766 181.411 37.8611C181.411 30.1457 175.163 23.8911 167.456 23.8911C159.749 23.8911 153.501 30.1457 153.501 37.8611C153.501 45.5766 159.749 51.8312 167.456 51.8312Z" fill="#2F99AE"/>
<path d="M167.027 45.7178C166.971 45.6614 166.926 45.5945 166.896 45.5208C166.865 45.4471 166.849 45.3681 166.85 45.2883V29.8266C166.85 29.6655 166.914 29.511 167.027 29.3971C167.141 29.2832 167.295 29.2192 167.456 29.2192C167.617 29.2192 167.772 29.2832 167.885 29.3971C167.999 29.511 168.063 29.6655 168.063 29.8266V45.2883C168.063 45.4084 168.027 45.5258 167.961 45.6257C167.894 45.7256 167.799 45.8034 167.688 45.8494C167.578 45.8953 167.456 45.9074 167.338 45.884C167.22 45.8605 167.112 45.8027 167.027 45.7178Z" fill="white"/>
<path d="M159.305 37.987C159.22 37.9021 159.162 37.7938 159.139 37.676C159.115 37.5582 159.127 37.4361 159.173 37.3251C159.219 37.2142 159.297 37.1193 159.397 37.0526C159.496 36.9858 159.614 36.9502 159.734 36.9502H175.179C175.34 36.9502 175.494 37.0142 175.608 37.1281C175.722 37.242 175.786 37.3965 175.786 37.5575C175.786 37.7186 175.722 37.8731 175.608 37.987C175.494 38.1009 175.34 38.1649 175.179 38.1649H159.734C159.654 38.165 159.575 38.1493 159.501 38.1188C159.428 38.0883 159.361 38.0435 159.305 37.987Z" fill="white"/>
<path d="M157.877 47.2051C157.776 47.3964 157.69 47.5954 157.62 47.8002L138.882 52.7744L135.555 49.4375L129.868 53.8053L136.673 62.1003L159.11 52.5007C159.789 52.9842 160.598 53.2494 161.431 53.261C162.264 53.2727 163.081 53.0301 163.773 52.5657C164.465 52.1013 164.999 51.437 165.305 50.6611C165.611 49.8853 165.673 49.0347 165.484 48.2225C165.295 47.4103 164.863 46.6749 164.247 46.1142C163.63 45.5535 162.857 45.194 162.032 45.0835C161.206 44.9731 160.366 45.1169 159.624 45.4959C158.882 45.8749 158.273 46.4711 157.877 47.2051Z" fill="#FFB8B8"/>
<path d="M130.957 57.6937L120.177 46.9027C119.686 46.4125 119.296 45.83 119.029 45.1888C118.763 44.5475 118.626 43.86 118.625 43.1655C118.624 42.471 118.761 41.7832 119.026 41.1415C119.291 40.4998 119.68 39.9167 120.171 39.4256C120.661 38.9346 121.244 38.5452 121.885 38.2797C122.526 38.0142 123.213 37.8778 123.907 37.8784C124.6 37.879 125.287 38.0165 125.928 38.2831C126.568 38.5497 127.15 38.9401 127.64 39.432L138.419 50.2231C138.583 50.3865 138.712 50.5806 138.801 50.7943C138.889 51.0079 138.935 51.2368 138.935 51.4681C138.935 51.6993 138.889 51.9282 138.801 52.1419C138.712 52.3555 138.583 52.5496 138.419 52.713L133.444 57.6938C133.114 58.0234 132.667 58.2085 132.2 58.2085C131.734 58.2085 131.287 58.0234 130.957 57.6937Z" fill="#46D3D4"/>
</g>
<defs>
<clipPath id="clip0_605_1667">
<rect width="467" height="338" fill="white"/>
</clipPath>
</defs>
</svg>
