<svg width="40" height="40" viewBox="0 0 40 40" fill="none" xmlns="http://www.w3.org/2000/svg">
<path d="M30.2204 20.655C30.2266 22.2513 30.6825 23.8108 31.5318 25.1412C32.3811 26.4716 33.5867 27.5146 35 28.1414C34.4269 30.01 33.5967 31.7827 32.5354 33.4044C31.0502 35.6576 29.508 37.9033 27.0826 37.9496C24.6964 37.9959 23.9308 36.4808 21.2061 36.4808C18.4798 36.4808 17.6267 37.9033 15.3741 37.9976C13.0307 38.0883 11.248 35.5596 9.75049 33.3137C6.68756 28.7186 4.35119 20.3331 7.4889 14.6724C8.22582 13.3031 9.29224 12.1559 10.5839 11.343C11.8755 10.5301 13.3481 10.0793 14.8577 10.0348C17.1584 9.98855 19.3274 11.6423 20.7343 11.6423C22.1393 11.6423 24.7766 9.65379 27.551 9.94604C28.8366 9.99243 30.0944 10.3481 31.2252 10.9849C32.3562 11.6218 33.3295 12.5225 34.0686 13.6162C32.9062 14.3552 31.9437 15.3888 31.2709 16.6199C30.5982 17.8511 30.2355 19.2395 30.2204 20.655ZM25.7346 6.90667C27.0807 5.27012 27.7478 3.14632 27.5901 1C25.5613 1.2045 23.6849 2.20797 22.3458 3.80442C21.677 4.57728 21.1648 5.4823 20.8402 6.46537C20.5155 7.44846 20.3851 8.48947 20.4565 9.52615C21.4719 9.54202 22.4771 9.31382 23.3936 8.85941C24.3102 8.40512 25.1132 7.73674 25.74 6.90667H25.7346Z" fill="#46D3D4"/>
</svg>
