<svg width="40" height="40" viewBox="0 0 40 40" fill="none" xmlns="http://www.w3.org/2000/svg">
<path d="M27.258 22.6C27.382 21.577 27.475 20.554 27.475 19.5C27.475 18.446 27.382 17.423 27.258 16.4H32.497C32.745 17.392 32.8999 18.4305 32.8999 19.5C32.8999 20.5695 32.745 21.608 32.497 22.6M24.5145 31.2181C25.4445 29.4976 26.1574 27.6376 26.6535 25.7H31.2259C29.7243 28.2859 27.3419 30.2446 24.5145 31.2181ZM24.127 22.6H16.873C16.718 21.577 16.625 20.554 16.625 19.5C16.625 18.446 16.718 17.4075 16.873 16.4H24.127C24.2665 17.4075 24.375 18.446 24.375 19.5C24.375 20.554 24.2665 21.577 24.127 22.6ZM20.5 31.838C19.2135 29.978 18.175 27.9166 17.5395 25.7H23.4604C22.825 27.9166 21.7865 29.978 20.5 31.838ZM14.3 13.3H9.774C11.2599 10.7069 13.6407 8.74493 16.47 7.782C15.54 9.5025 14.8425 11.3625 14.3 13.3ZM9.774 25.7H14.3C14.8425 27.6376 15.54 29.4976 16.47 31.2181C13.6464 30.2451 11.2686 28.2857 9.774 25.7ZM8.503 22.6C8.255 21.608 8.1 20.5695 8.1 19.5C8.1 18.4305 8.255 17.392 8.503 16.4H13.742C13.618 17.423 13.525 18.446 13.525 19.5C13.525 20.554 13.618 21.577 13.742 22.6M20.5 7.1465C21.7865 9.0065 22.825 11.0835 23.4604 13.3H17.5395C18.175 11.0835 19.2135 9.0065 20.5 7.1465ZM31.2259 13.3H26.6535C26.1677 11.3805 25.4493 9.52746 24.5145 7.782C27.3664 8.7585 29.7379 10.727 31.2259 13.3ZM20.5 4C11.9285 4 5 10.975 5 19.5C5 23.6108 6.63303 27.5534 9.53985 30.4602C10.9792 31.8995 12.6879 33.0412 14.5684 33.8202C16.4489 34.5991 18.4645 35 20.5 35C24.6109 35 28.5533 33.367 31.4601 30.4602C34.3669 27.5534 36 23.6108 36 19.5C36 17.4646 35.5991 15.449 34.8201 13.5684C34.0411 11.6879 32.8995 9.97915 31.4601 8.53985C30.0209 7.10054 28.3122 5.95881 26.4316 5.17986C24.5511 4.40091 22.5355 4 20.5 4Z" fill="#46D3D4"/>
</svg>
