<svg width="40" height="40" viewBox="0 0 40 40" fill="none" xmlns="http://www.w3.org/2000/svg">
<path d="M12.5 5H27.5C31.6667 5 35 8.33333 35 12.5V27.5C35 31.6667 31.6667 35 27.5 35H12.5C8.33333 35 5 31.6667 5 27.5V12.5C5 8.33333 8.33333 5 12.5 5ZM10 22.5V27.5C10 28.163 10.2634 28.7989 10.7322 29.2678C11.2011 29.7366 11.837 30 12.5 30H15V17.5L25 30H27.5C28.163 30 28.7989 29.7366 29.2678 29.2678C29.7366 28.7989 30 28.163 30 27.5V22.5C30 21.837 30.2634 21.2011 30.7322 20.7322C31.2011 20.2634 31.837 20 32.5 20C31.837 20 31.2011 19.7366 30.7322 19.2678C30.2634 18.7989 30 18.163 30 17.5V12.5C30 11.837 29.7366 11.2011 29.2678 10.7322C28.7989 10.2634 28.163 10 27.5 10H25V22.5L15 10H12.5C11.837 10 11.2011 10.2634 10.7322 10.7322C10.2634 11.2011 10 11.837 10 12.5V17.5C10 18.163 9.73661 18.7989 9.26777 19.2678C8.79893 19.7366 8.16304 20 7.5 20C8.16304 20 8.79893 20.2634 9.26777 20.7322C9.73661 21.2011 10 21.837 10 22.5Z" fill="#46D3D4"/>
</svg>
