<svg width="40" height="40" viewBox="0 0 40 40" fill="none" xmlns="http://www.w3.org/2000/svg">
<path d="M20 17.0521C21.6288 17.0521 22.9572 18.3623 22.9572 20C22.9572 21.5597 21.6288 22.8855 20 22.8855C18.3712 22.8855 17.0428 21.5597 17.0428 20C17.0428 18.3623 18.3712 17.0521 20 17.0521ZM12.6781 32.4779C13.6744 33.0706 15.8568 32.166 18.3712 29.8264C17.5488 28.9061 16.7423 27.9079 15.9832 26.8628C14.709 26.7417 13.4421 26.5543 12.1879 26.3013C11.3814 29.6392 11.6819 31.932 12.6781 32.4779ZM13.8009 23.525L13.3423 22.7295C13.1684 23.1819 12.9944 23.6342 12.8838 24.071C13.3107 24.1645 13.7852 24.2425 14.2753 24.3204L13.8009 23.525ZM24.1432 22.3396L25.4242 20L24.1432 17.6604C23.6688 16.8337 23.1628 16.1007 22.7042 15.3676C21.8503 15.3208 20.9489 15.3208 20 15.3208C19.0512 15.3208 18.1498 15.3208 17.2959 15.3676C16.8372 16.1007 16.3312 16.8337 15.8567 17.6604L14.5758 20L15.8567 22.3396C16.3312 23.1663 16.8372 23.8993 17.2959 24.6325C18.1498 24.6793 19.0512 24.6792 20 24.6792C20.9489 24.6792 21.8503 24.6793 22.7042 24.6325C23.1628 23.8993 23.6688 23.1663 24.1432 22.3396ZM20 11.8582C19.6995 12.2013 19.3833 12.5601 19.067 12.9812H20.933C20.6168 12.5601 20.3004 12.2013 20 11.8582ZM20 28.1419C20.3004 27.7987 20.6168 27.44 20.933 27.0189H19.067C19.3833 27.44 19.6995 27.7987 20 28.1419ZM27.3061 7.52214C26.3256 6.92944 24.1432 7.83409 21.6288 10.1737C22.4512 11.0939 23.2577 12.0922 24.0168 13.1372C25.3135 13.262 26.5945 13.4492 27.8121 13.6987C28.6186 10.3609 28.3181 8.06805 27.3061 7.52214ZM26.1991 16.475L26.6577 17.2705C26.8317 16.8182 27.0056 16.3658 27.1163 15.9291C26.6894 15.8356 26.2149 15.7575 25.7247 15.6796L26.1991 16.475ZM28.4921 5.47889C30.8168 6.78907 31.0698 10.2361 30.0893 14.2602C34.106 15.43 37 17.3641 37 20C37 22.6359 34.106 24.57 30.0893 25.7398C31.0698 29.764 30.8168 33.2109 28.4921 34.5211C26.1832 35.8313 23.0363 34.3339 20 31.4796C16.9638 34.3339 13.8167 35.8313 11.4921 34.5211C9.18327 33.2109 8.93024 29.764 9.91071 25.7398C5.89396 24.57 3 22.6359 3 20C3 17.3641 5.89396 15.43 9.91071 14.2602C8.93024 10.2361 9.18327 6.78907 11.4921 5.47889C13.8167 4.16871 16.9638 5.66606 20 8.52037C23.0363 5.66606 26.1832 4.16871 28.4921 5.47889ZM28.0335 20C28.5712 21.1698 29.0456 22.3396 29.441 23.525C32.7619 22.5424 34.6279 21.1386 34.6279 20C34.6279 18.8614 32.7619 17.4576 29.441 16.475C29.0456 17.6604 28.5712 18.8302 28.0335 20ZM11.9665 20C11.4288 18.8302 10.9544 17.6604 10.5591 16.475C7.23815 17.4576 5.3721 18.8614 5.3721 20C5.3721 21.1386 7.23815 22.5424 10.5591 23.525C10.9544 22.3396 11.4288 21.1698 11.9665 20ZM26.1991 23.525L25.7247 24.3204C26.2149 24.2425 26.6894 24.1645 27.1163 24.071C27.0056 23.6342 26.8317 23.1819 26.6577 22.7295L26.1991 23.525ZM21.6288 29.8264C24.1432 32.166 26.3256 33.0706 27.3061 32.4779C28.3181 31.932 28.6186 29.6392 27.8121 26.3013C26.5945 26.5509 25.3135 26.7381 24.0168 26.8628C23.2577 27.9079 22.4512 28.9061 21.6288 29.8264ZM13.8009 16.475L14.2753 15.6796C13.7852 15.7575 13.3107 15.8356 12.8838 15.9291C12.9944 16.3658 13.1684 16.8182 13.3423 17.2705L13.8009 16.475ZM18.3712 10.1737C15.8568 7.83409 13.6744 6.92944 12.6781 7.52214C11.6819 8.06805 11.3814 10.3609 12.1879 13.6987C13.4421 13.4458 14.709 13.2583 15.9832 13.1372C16.7423 12.0922 17.5488 11.0939 18.3712 10.1737Z" fill="#46D3D4"/>
</svg>
