<svg width="40" height="40" viewBox="0 0 40 40" fill="none" xmlns="http://www.w3.org/2000/svg">
<path d="M20.0003 36.6668C16.1392 35.6946 12.9514 33.4791 10.437 30.0202C7.92255 26.5613 6.66588 22.7213 6.66699 18.5002V8.3335L20.0003 3.3335L33.3337 8.3335V18.5002C33.3337 22.7224 32.077 26.5629 29.5637 30.0218C27.0503 33.4807 23.8625 35.6957 20.0003 36.6668ZM20.0003 33.1668C22.6948 32.3335 24.9448 30.6874 26.7503 28.2285C28.5559 25.7696 29.6114 23.0268 29.917 20.0002H20.0003V6.87516L10.0003 10.6252V19.2502C10.0003 19.4446 10.0281 19.6946 10.0837 20.0002H20.0003V33.1668Z" fill="#2F99AE"/>
</svg>
