<svg width="87" height="86" viewBox="0 0 87 86" fill="none" xmlns="http://www.w3.org/2000/svg">
<g clip-path="url(#clip0_1636_3271)">
<path d="M80.6278 7.27734H6.37219C3.8241 7.27734 1.75977 9.34168 1.75977 11.8898V65.8951C1.75977 68.4432 3.8241 70.5075 6.37219 70.5075H33.4303C35.078 70.5075 36.6015 71.386 37.4246 72.8137L39.5057 76.42C41.2811 79.4955 45.7189 79.4955 47.4943 76.42L49.5754 72.8137C50.4002 71.386 51.922 70.5075 53.5697 70.5075H80.6278C83.1759 70.5075 85.2402 68.4432 85.2402 65.8951V11.8898C85.2402 9.34168 83.1759 7.27734 80.6278 7.27734Z" fill="#FCFDFD"/>
<path d="M62.5081 16.529L27.9855 25.7791C25.1703 26.5332 24.742 30.3478 27.3187 31.7084L42.1083 39.5139C42.6794 39.8145 43.1447 40.2815 43.447 40.8526L51.2525 55.6422C52.6131 58.2189 56.4276 57.7906 57.1818 54.9754L66.4319 20.4528" fill="#46D3D4"/>
<path d="M80.6278 6.01758H6.37219C3.13375 6.01758 0.5 8.65133 0.5 11.8898V65.8951C0.5 69.1318 3.13375 71.7656 6.37219 71.7656H33.4303C34.6245 71.7656 35.7365 72.4072 36.3345 73.4419L38.4156 77.0482C39.4771 78.8875 41.3786 79.9843 43.5017 79.9843C45.6248 79.9843 47.5262 78.8875 48.5861 77.0482L50.6672 73.4419C51.2635 72.4072 52.3771 71.7656 53.5714 71.7656H80.6295C83.8679 71.7656 86.5017 69.1318 86.5017 65.8934V11.8898C86.5017 8.65133 83.8679 6.01758 80.6295 6.01758H80.6278ZM83.9805 65.8951C83.9805 67.7444 82.4771 69.2477 80.6278 69.2477H53.5697C51.4785 69.2477 49.5301 70.3731 48.4836 72.1838L46.4025 75.7901C45.7961 76.8399 44.7111 77.4664 43.5 77.4664C42.2889 77.4664 41.2022 76.8399 40.5958 75.7901L38.5147 72.1838C37.4699 70.3731 35.5198 69.2477 33.4286 69.2477H6.37219C4.52285 69.2477 3.01953 67.7444 3.01953 65.8951V11.8898C3.01953 10.0404 4.52285 8.53711 6.37219 8.53711H80.6278C82.4771 8.53711 83.9805 10.0404 83.9805 11.8898V65.8951Z" fill="#222222"/>
<path d="M66.4931 16.4664C66.4931 16.4664 66.4931 16.4664 66.4914 16.4664C66.3637 16.3387 66.231 16.2212 66.0933 16.112C65.3038 15.4871 64.3464 15.1562 63.3571 15.1562C62.9674 15.1562 62.5727 15.2083 62.1813 15.3125C62.1813 15.3125 62.1796 15.3125 62.1779 15.3125L27.6587 24.5625C25.8715 25.0412 24.5849 26.5378 24.3783 28.3754C24.1717 30.213 25.0955 31.9582 26.7298 32.8215L41.5195 40.627C41.8672 40.8101 42.1477 41.0906 42.3324 41.4383L50.1379 56.228C50.9207 57.7111 52.429 58.6098 54.0751 58.6098C54.2431 58.6098 54.4144 58.5997 54.5841 58.5812C56.4217 58.3746 57.9183 57.0863 58.397 55.3008L67.647 20.7782C67.7512 20.3868 67.8032 19.9921 67.8032 19.6024C67.8032 18.44 67.3463 17.323 66.4931 16.4681C66.4931 16.4681 66.4931 16.4681 66.4931 16.4664ZM27.9056 30.5926C26.8172 30.0181 26.8457 28.965 26.881 28.6559C26.9163 28.3468 27.1212 27.3138 28.3104 26.9947L62.833 17.7446C63.0531 17.6859 63.2748 17.6691 63.4915 17.6859L42.749 38.4283C42.7305 38.4182 42.7137 38.4082 42.6969 38.3981L27.9073 30.5926H27.9056ZM65.2148 20.1264L55.9648 54.6491C55.6456 55.8383 54.6126 56.0432 54.3036 56.0785C53.9945 56.1137 52.9413 56.1423 52.3669 55.0539L44.5614 40.2642C44.5513 40.2457 44.5412 40.2289 44.5311 40.2121L65.277 19.4663C65.2803 19.5167 65.2837 19.5654 65.2837 19.6158C65.2837 19.7855 65.2619 19.9568 65.2165 20.1281L65.2148 20.1264Z" fill="#222222"/>
<path d="M27.2591 42.3466C27.7512 41.8544 27.7512 41.0566 27.2591 40.5644C26.7669 40.0723 25.9691 40.0723 25.4769 40.5644L19.5644 46.4769C19.0723 46.9691 19.0723 47.7669 19.5644 48.2591C19.8097 48.5043 20.1322 48.6286 20.4547 48.6286C20.7772 48.6286 21.0997 48.506 21.3449 48.2591L27.2574 42.3466H27.2591Z" fill="#222222"/>
<path d="M40.6117 55.6992L34.6992 61.6117C34.207 62.1038 34.207 62.9017 34.6992 63.3938C34.9444 63.6391 35.2669 63.7634 35.5894 63.7634C35.9119 63.7634 36.2344 63.6408 36.4797 63.3938L42.3922 57.4813C42.8843 56.9892 42.8843 56.1913 42.3922 55.6992C41.9 55.207 41.1022 55.207 40.61 55.6992H40.6117Z" fill="#222222"/>
<path d="M34.8265 48.1328C34.3343 47.6406 33.5365 47.6406 33.0443 48.1328L21.1152 60.0619C20.6231 60.5541 20.6231 61.3519 21.1152 61.8441C21.3604 62.0893 21.6829 62.2136 22.0054 62.2136C22.3279 62.2136 22.6504 62.091 22.8957 61.8441L34.8248 49.9149C35.317 49.4228 35.317 48.6249 34.8248 48.1328H34.8265Z" fill="#222222"/>
</g>
<defs>
<clipPath id="clip0_1636_3271">
<rect width="86" height="86" fill="white" transform="translate(0.5)"/>
</clipPath>
</defs>
</svg>
