<svg width="40" height="40" viewBox="0 0 40 40" fill="none" xmlns="http://www.w3.org/2000/svg">
<path fill-rule="evenodd" clip-rule="evenodd" d="M8.33333 8.3335C7.44928 8.3335 6.60143 8.68469 5.97631 9.30981C5.35119 9.93493 5 10.7828 5 11.6668V16.6668C5 17.1089 5.17559 17.5328 5.48816 17.8453C5.80072 18.1579 6.22464 18.3335 6.66667 18.3335H33.3333C33.7754 18.3335 34.1993 18.1579 34.5118 17.8453C34.8244 17.5328 35 17.1089 35 16.6668V11.6668C35 10.7828 34.6488 9.93493 34.0237 9.30981C33.3986 8.68469 32.5507 8.3335 31.6667 8.3335H8.33333ZM23.3333 11.6668C22.8913 11.6668 22.4674 11.8424 22.1548 12.155C21.8423 12.4675 21.6667 12.8915 21.6667 13.3335C21.6667 13.7755 21.8423 14.1994 22.1548 14.512C22.4674 14.8246 22.8913 15.0002 23.3333 15.0002H23.35C23.792 15.0002 24.216 14.8246 24.5285 14.512C24.8411 14.1994 25.0167 13.7755 25.0167 13.3335C25.0167 12.8915 24.8411 12.4675 24.5285 12.155C24.216 11.8424 23.792 11.6668 23.35 11.6668H23.3333ZM28.3333 11.6668C27.8913 11.6668 27.4674 11.8424 27.1548 12.155C26.8423 12.4675 26.6667 12.8915 26.6667 13.3335C26.6667 13.7755 26.8423 14.1994 27.1548 14.512C27.4674 14.8246 27.8913 15.0002 28.3333 15.0002H28.35C28.792 15.0002 29.2159 14.8246 29.5285 14.512C29.8411 14.1994 30.0167 13.7755 30.0167 13.3335C30.0167 12.8915 29.8411 12.4675 29.5285 12.155C29.2159 11.8424 28.792 11.6668 28.35 11.6668H28.3333ZM5 28.3335V23.3335C5 22.8915 5.17559 22.4675 5.48816 22.155C5.80072 21.8424 6.22464 21.6668 6.66667 21.6668H33.3333C33.7754 21.6668 34.1993 21.8424 34.5118 22.155C34.8244 22.4675 35 22.8915 35 23.3335V28.3335C35 29.2176 34.6488 30.0654 34.0237 30.6905C33.3986 31.3156 32.5507 31.6668 31.6667 31.6668H8.33333C7.44928 31.6668 6.60143 31.3156 5.97631 30.6905C5.35119 30.0654 5 29.2176 5 28.3335ZM23.3333 25.0002C22.8913 25.0002 22.4674 25.1758 22.1548 25.4883C21.8423 25.8009 21.6667 26.2248 21.6667 26.6668C21.6667 27.1089 21.8423 27.5328 22.1548 27.8453C22.4674 28.1579 22.8913 28.3335 23.3333 28.3335H23.35C23.792 28.3335 24.216 28.1579 24.5285 27.8453C24.8411 27.5328 25.0167 27.1089 25.0167 26.6668C25.0167 26.2248 24.8411 25.8009 24.5285 25.4883C24.216 25.1758 23.792 25.0002 23.35 25.0002H23.3333ZM28.3333 25.0002C27.8913 25.0002 27.4674 25.1758 27.1548 25.4883C26.8423 25.8009 26.6667 26.2248 26.6667 26.6668C26.6667 27.1089 26.8423 27.5328 27.1548 27.8453C27.4674 28.1579 27.8913 28.3335 28.3333 28.3335H28.35C28.792 28.3335 29.2159 28.1579 29.5285 27.8453C29.8411 27.5328 30.0167 27.1089 30.0167 26.6668C30.0167 26.2248 29.8411 25.8009 29.5285 25.4883C29.2159 25.1758 28.792 25.0002 28.35 25.0002H28.3333Z" fill="#46D3D4"/>
</svg>
