<svg width="41" height="40" viewBox="0 0 41 40" fill="none" xmlns="http://www.w3.org/2000/svg">
<g clip-path="url(#clip0_118_38)">
<path d="M36.5156 0H18.4878C16.2908 0 14.5034 1.86 14.5034 4.14634V8.26333H4.60945C2.34352 8.26341 0.5 10.1818 0.5 12.5398V18.374C0.5 20.2237 1.63437 21.8029 3.21656 22.3978V32.1577C3.21656 33.4171 4.20109 34.4415 5.41117 34.4415H16.8054L15.8348 38.2114H14.8819C14.4073 38.2114 14.0225 38.6118 14.0225 39.1057C14.0225 39.5996 14.4073 40 14.8819 40H26.1182C26.5928 40 26.9776 39.5996 26.9776 39.1057C26.9776 38.6118 26.5928 38.2114 26.1182 38.2114H25.1652L24.1946 34.4415H35.5888C36.799 34.4415 37.7834 33.417 37.7834 32.1577V19.0532C39.3608 18.5008 40.5 16.9472 40.5 15.122V4.14634C40.5 1.86008 38.7127 0 36.5156 0ZM2.21875 18.374V12.5398C2.21875 11.168 3.29125 10.052 4.60945 10.052H14.5034V15.122C14.5034 17.1897 15.9654 18.9087 17.8702 19.2185C17.5352 20.1854 16.6466 20.8618 15.6211 20.8618H12.2487C11.7741 20.8618 11.3893 21.2622 11.3893 21.7561V23.2505L8.77367 21.0644C8.62141 20.9372 8.43203 20.8677 8.2368 20.8674L4.60945 20.8619C3.29125 20.8619 2.21875 19.7458 2.21875 18.374ZM23.3859 38.2114H17.6141L18.5848 34.4415H22.4152L23.3859 38.2114ZM35.5887 32.6529H5.41125C5.15328 32.6529 4.93539 32.4261 4.93539 32.1577V22.651L7.93266 22.6555L11.7105 25.8131C11.8662 25.9431 12.0566 26.0101 12.2488 26.0101C12.3751 26.0101 12.502 25.9812 12.6202 25.9222C12.9184 25.7734 13.108 25.4598 13.108 25.1158V22.6504H15.6211C17.5751 22.6504 19.2398 21.2221 19.6398 19.2682H25.3939V22.5047C25.3939 22.8677 25.6048 23.1947 25.9276 23.3324C26.033 23.3772 26.1435 23.3991 26.2531 23.3991C26.4791 23.3991 26.701 23.3063 26.8659 23.132L30.5195 19.2683H36.0647V32.1577C36.0647 32.4261 35.8467 32.6529 35.5887 32.6529ZM38.7812 15.122C38.7812 16.422 37.7649 17.4797 36.5156 17.4797H30.1595C29.9291 17.4797 29.7085 17.5759 29.547 17.7467L27.1127 20.321V18.374C27.1127 17.8801 26.7279 17.4797 26.2533 17.4797H18.4878C17.2385 17.4797 16.2222 16.422 16.2222 15.122V4.14634C16.2222 2.84626 17.2385 1.78862 18.4878 1.78862H36.5156C37.7649 1.78862 38.7812 2.84626 38.7812 4.14634V15.122Z" fill="#E8F1F1"/>
<path d="M22.2982 28.9941H18.7012C18.2266 28.9941 17.8418 29.3945 17.8418 29.8884C17.8418 30.3824 18.2266 30.7828 18.7012 30.7828H22.2982C22.7728 30.7828 23.1576 30.3824 23.1576 29.8884C23.1576 29.3945 22.7728 28.9941 22.2982 28.9941Z" fill="#46D3D4"/>
<path d="M7.54289 16.3906H5.26562C4.79102 16.3906 4.40625 16.791 4.40625 17.2849C4.40625 17.7788 4.79102 18.1792 5.26562 18.1792H7.54289C8.0175 18.1792 8.40227 17.7788 8.40227 17.2849C8.40227 16.791 8.0175 16.3906 7.54289 16.3906Z" fill="#46D3D4"/>
<path d="M10.182 12.7324H5.26562C4.79102 12.7324 4.40625 13.1328 4.40625 13.6267C4.40625 14.1206 4.79102 14.521 5.26562 14.521H10.1821C10.6567 14.521 11.0415 14.1206 11.0415 13.6267C11.0415 13.1328 10.6566 12.7324 10.182 12.7324Z" fill="#46D3D4"/>
<path d="M29.8625 10.5684H20.4707C19.9961 10.5684 19.6113 10.9688 19.6113 11.4627C19.6113 11.9566 19.9961 12.357 20.4707 12.357H29.8625C30.3371 12.357 30.7219 11.9566 30.7219 11.4627C30.7219 10.9688 30.3371 10.5684 29.8625 10.5684Z" fill="#46D3D4"/>
<path d="M34.5332 6.91016H20.4707C19.9961 6.91016 19.6113 7.31056 19.6113 7.80447C19.6113 8.29837 19.9961 8.69877 20.4707 8.69877H34.5332C35.0078 8.69877 35.3926 8.29837 35.3926 7.80447C35.3926 7.31056 35.0078 6.91016 34.5332 6.91016Z" fill="#46D3D4"/>
</g>
<defs>
<clipPath id="clip0_118_38">
<rect width="41" height="40" fill="white"/>
</clipPath>
</defs>
</svg>
