<svg width="530" height="288" viewBox="0 0 530 288" fill="none" xmlns="http://www.w3.org/2000/svg">
<path d="M440.5 166C489.929 166 530 128.84 530 83C530 37.1604 489.929 0 440.5 0C391.071 0 351 37.1604 351 83C351 128.84 391.071 166 440.5 166Z" fill="#0AACEE" fill-opacity="0.2"/>
<g clip-path="url(#clip0_149_8455)">
<path d="M26.1604 264.693C15.9532 273.375 13.8347 287.615 13.8347 287.615C13.8347 287.615 28.2652 287.778 38.4724 279.096C48.6796 270.414 50.7981 256.174 50.7981 256.174C50.7981 256.174 36.3676 256.011 26.1604 264.693Z" fill="#44D2A8"/>
<path d="M30.8771 268.147C26.5292 280.806 14.029 288 14.029 288C14.029 288 8.57817 274.671 12.9261 262.012C17.2739 249.354 29.7741 242.159 29.7741 242.159C29.7741 242.159 35.225 255.489 30.8771 268.147Z" fill="#44D2A8"/>
<path d="M137.42 80.8641C135.11 77.8789 131.846 75.1169 131.64 71.4332C131.45 68.0547 133.976 64.7003 132.91 61.468C132.091 58.9827 129.39 57.4831 126.75 56.689C121.695 55.1905 116.286 55.3982 111.362 57.28L111.629 57.092C108.624 56.0241 105.111 57.1265 102.746 59.1684C100.382 61.2102 98.9765 64.0405 97.8862 66.8767C96.7956 69.713 95.9507 72.653 94.4356 75.3119C92.9203 77.9709 90.6005 80.3891 87.5397 81.308C88.5644 83.3468 91.7676 84.0463 93.6462 82.6414C94.1262 82.2526 94.5575 81.8077 94.9312 81.3164C96.1841 79.7966 97.437 78.2768 98.6901 76.757C99.9793 79.0443 98.0533 82.2012 99.6381 84.3187C100.455 85.4107 101.948 85.8254 103.334 86.1228C114.167 88.4287 125.406 88.0129 136.038 84.9128C136.893 84.6616 137.836 84.3156 138.19 83.5441C138.6 82.6533 138.027 81.6491 137.42 80.8641Z" fill="#2F2E41"/>
<path d="M168.138 92.5137C168.07 92.8104 168.026 93.1119 168.006 93.4155L144.327 107.042L138.571 103.737L132.436 111.75L142.055 118.588C142.832 119.141 143.768 119.427 144.722 119.404C145.676 119.381 146.596 119.049 147.345 118.46L171.763 99.2447C172.865 99.6516 174.065 99.7141 175.203 99.4241C176.342 99.1341 177.364 98.5052 178.136 97.621C178.907 96.7369 179.391 95.6395 179.521 94.4747C179.652 93.3098 179.425 92.1329 178.869 91.1003C178.313 90.0678 177.455 89.2286 176.409 88.6943C175.363 88.16 174.179 87.9561 173.014 88.1095C171.849 88.2629 170.758 88.7665 169.887 89.5532C169.016 90.34 168.406 91.3726 168.138 92.5137Z" fill="#FFB7B7"/>
<path d="M143.535 107.687L135.882 117.581C135.665 117.863 135.389 118.094 135.073 118.26C134.758 118.425 134.41 118.521 134.054 118.541C133.698 118.56 133.342 118.503 133.011 118.373C132.679 118.242 132.379 118.043 132.132 117.786L123.468 108.812C122.029 107.693 121.093 106.05 120.866 104.244C120.64 102.438 121.141 100.616 122.26 99.1776C123.379 97.7396 125.025 96.8033 126.835 96.5742C128.645 96.3451 130.473 96.8419 131.917 97.9556L142.783 104.017C143.094 104.19 143.364 104.429 143.574 104.716C143.784 105.003 143.93 105.332 144.002 105.68C144.073 106.028 144.068 106.388 143.988 106.734C143.908 107.081 143.753 107.406 143.535 107.687Z" fill="#42BAF2"/>
<path d="M133.003 280.08L139.761 280.08L142.976 254.078L133.002 254.079L133.003 280.08Z" fill="#FFB7B7"/>
<path d="M131.279 277.879L144.588 277.879H144.588C146.838 277.879 148.995 278.77 150.585 280.357C152.176 281.943 153.069 284.095 153.07 286.339V286.614L131.279 286.615L131.279 277.879Z" fill="#2F2E41"/>
<path d="M86.7004 280.08L93.4584 280.08L96.6731 254.078L86.6993 254.079L86.7004 280.08Z" fill="#FFB7B7"/>
<path d="M84.9765 277.879L98.2852 277.879H98.2857C100.535 277.879 102.692 278.77 104.283 280.357C105.873 281.943 106.767 284.095 106.767 286.339V286.614L84.9769 286.615L84.9765 277.879Z" fill="#2F2E41"/>
<path d="M128.944 77.1884C129.648 70.7925 125.021 65.0385 118.609 64.3364C112.198 63.6344 106.429 68.25 105.726 74.6459C105.022 81.0417 109.649 86.7957 116.061 87.4978C122.472 88.1999 128.241 83.5842 128.944 77.1884Z" fill="#FFB7B7"/>
<path d="M124.169 93.3821L131.049 96.7822C131.049 96.7822 138.737 110.109 134.327 122.756C132.186 128.896 138.215 148.469 138.215 148.469C138.215 148.469 147.556 237.126 147.586 264.488C135.981 266.268 124.956 268.467 124.405 262.969C123.854 257.47 117.82 192.457 117.82 192.457C117.82 192.457 109.522 264.618 102.907 265.718C96.2928 266.818 83.0635 265.168 83.0635 265.168C83.0635 265.168 93.5662 159.466 100.732 152.867L101.834 147.369L101.805 98.0123L110.061 94.0821L124.169 93.3821Z" fill="#2F2E41"/>
<path d="M99.5551 168.311C100.316 167.9 100.978 167.328 101.494 166.634C102.009 165.94 102.366 165.142 102.539 164.296C102.712 163.45 102.697 162.576 102.495 161.737C102.293 160.897 101.909 160.112 101.369 159.436L109.371 106.231L98.9168 105.73L92.6791 158.715C91.6015 159.694 90.9214 161.034 90.7675 162.479C90.6137 163.925 90.9968 165.377 91.8444 166.56C92.6919 167.743 93.945 168.574 95.3661 168.897C96.7873 169.22 98.2777 169.011 99.5551 168.311Z" fill="#FFB7B7"/>
<path d="M109.144 119.562L96.641 118.775C96.2853 118.753 95.9385 118.654 95.6244 118.486C95.3104 118.318 95.0363 118.084 94.8209 117.801C94.6055 117.517 94.4538 117.191 94.3763 116.844C94.2987 116.497 94.297 116.137 94.3713 115.79L96.9765 103.605C97.1014 101.789 97.9429 100.098 99.3165 98.9005C100.69 97.7033 102.483 97.0984 104.303 97.2183C106.123 97.3383 107.821 98.1734 109.025 99.5404C110.229 100.907 110.84 102.695 110.724 104.511L111.772 116.885C111.802 117.24 111.755 117.596 111.634 117.931C111.514 118.265 111.322 118.57 111.073 118.824C110.823 119.078 110.522 119.276 110.189 119.403C109.856 119.53 109.5 119.585 109.144 119.562Z" fill="#42BAF2"/>
<path d="M454.694 69.1101H178.205C176.187 69.1101 174.251 69.9099 172.824 71.3336C171.397 72.7572 170.595 74.6881 170.595 76.7014V230.374C170.595 232.388 171.397 234.318 172.824 235.742C174.251 237.166 176.187 237.966 178.205 237.966H454.694C456.713 237.966 458.648 237.166 460.076 235.742C461.503 234.318 462.304 232.388 462.304 230.374V76.7014C462.304 74.6881 461.503 72.7572 460.076 71.3336C458.648 69.9099 456.713 69.1101 454.694 69.1101Z" fill="#3F3D56"/>
<path d="M452.102 82.5261H180.798V235.19H452.102V82.5261Z" fill="white"/>
<path d="M316.218 78.3624C317.755 78.3624 319.001 77.1197 319.001 75.5867C319.001 74.0538 317.755 72.811 316.218 72.811C314.681 72.811 313.435 74.0538 313.435 75.5867C313.435 77.1197 314.681 78.3624 316.218 78.3624Z" fill="white"/>
<path d="M374.513 235.19H180.798V82.5261L374.513 235.19Z" fill="#F2F2F2"/>
<path d="M469.922 232.414H443.445V230.511C443.445 230.411 443.405 230.315 443.334 230.245C443.263 230.174 443.167 230.134 443.066 230.134H433.988C433.939 230.134 433.889 230.144 433.844 230.163C433.798 230.182 433.756 230.209 433.721 230.245C433.686 230.28 433.658 230.321 433.639 230.367C433.62 230.413 433.61 230.462 433.61 230.511V232.414H427.936V230.511C427.936 230.462 427.927 230.413 427.908 230.367C427.889 230.321 427.861 230.28 427.826 230.245C427.79 230.21 427.749 230.182 427.703 230.163C427.657 230.144 427.608 230.134 427.558 230.134H418.48C418.43 230.134 418.381 230.144 418.335 230.163C418.289 230.182 418.248 230.209 418.213 230.245C418.178 230.28 418.15 230.321 418.131 230.367C418.112 230.413 418.102 230.462 418.102 230.511V232.414H412.428V230.511C412.428 230.462 412.418 230.413 412.399 230.367C412.38 230.321 412.352 230.28 412.317 230.245C412.282 230.209 412.241 230.182 412.195 230.163C412.149 230.144 412.1 230.134 412.05 230.134H402.972C402.922 230.134 402.873 230.144 402.827 230.163C402.781 230.182 402.74 230.209 402.704 230.245C402.669 230.28 402.641 230.321 402.622 230.367C402.603 230.413 402.594 230.462 402.594 230.511V232.414H396.92V230.511C396.92 230.462 396.91 230.413 396.891 230.367C396.872 230.321 396.844 230.28 396.809 230.245C396.774 230.21 396.732 230.182 396.686 230.163C396.641 230.144 396.591 230.134 396.542 230.134H387.464C387.414 230.134 387.365 230.144 387.319 230.163C387.273 230.182 387.231 230.209 387.196 230.245C387.161 230.28 387.133 230.321 387.114 230.367C387.095 230.413 387.085 230.462 387.085 230.511V232.414H381.412V230.511C381.412 230.462 381.402 230.413 381.383 230.367C381.364 230.321 381.336 230.28 381.301 230.245C381.266 230.209 381.224 230.182 381.178 230.163C381.132 230.144 381.083 230.134 381.033 230.134H371.955C371.906 230.134 371.857 230.144 371.811 230.163C371.765 230.182 371.723 230.209 371.688 230.245C371.653 230.28 371.625 230.321 371.606 230.367C371.587 230.413 371.577 230.462 371.577 230.511V232.414H365.903V230.511C365.904 230.462 365.894 230.413 365.875 230.367C365.856 230.321 365.828 230.28 365.793 230.245C365.758 230.21 365.716 230.182 365.67 230.163C365.624 230.144 365.575 230.134 365.525 230.134H356.447C356.398 230.134 356.348 230.144 356.303 230.163C356.257 230.182 356.215 230.209 356.18 230.245C356.145 230.28 356.117 230.321 356.098 230.367C356.079 230.413 356.069 230.462 356.069 230.511V232.414H350.395V230.511C350.395 230.462 350.386 230.413 350.367 230.367C350.347 230.321 350.32 230.28 350.285 230.245C350.249 230.209 350.208 230.182 350.162 230.163C350.116 230.144 350.067 230.134 350.017 230.134H278.906C278.856 230.134 278.807 230.144 278.761 230.163C278.716 230.182 278.674 230.209 278.639 230.245C278.604 230.28 278.576 230.321 278.557 230.367C278.538 230.413 278.528 230.462 278.528 230.511V232.414H272.854V230.511C272.854 230.462 272.844 230.413 272.825 230.367C272.806 230.321 272.779 230.28 272.743 230.245C272.708 230.209 272.667 230.182 272.621 230.163C272.575 230.144 272.526 230.134 272.476 230.134H263.398C263.348 230.134 263.299 230.144 263.253 230.163C263.207 230.182 263.166 230.209 263.13 230.245C263.095 230.28 263.068 230.321 263.049 230.367C263.029 230.413 263.02 230.462 263.02 230.511V232.414H257.346V230.511C257.346 230.462 257.336 230.413 257.317 230.367C257.298 230.321 257.27 230.28 257.235 230.245C257.2 230.21 257.158 230.182 257.112 230.163C257.067 230.144 257.017 230.134 256.968 230.134H247.89C247.84 230.134 247.791 230.144 247.745 230.163C247.699 230.182 247.657 230.209 247.622 230.245C247.587 230.28 247.559 230.321 247.54 230.367C247.521 230.413 247.511 230.462 247.511 230.511V232.414H241.838V230.511C241.838 230.462 241.828 230.413 241.809 230.367C241.79 230.321 241.762 230.28 241.727 230.245C241.692 230.209 241.65 230.182 241.604 230.163C241.558 230.144 241.509 230.134 241.459 230.134H232.382C232.332 230.134 232.283 230.144 232.237 230.163C232.191 230.182 232.149 230.209 232.114 230.245C232.079 230.28 232.051 230.321 232.032 230.367C232.013 230.413 232.003 230.462 232.003 230.511V232.414H226.33V230.511C226.33 230.462 226.32 230.413 226.301 230.367C226.282 230.321 226.254 230.28 226.219 230.245C226.184 230.209 226.142 230.182 226.096 230.163C226.05 230.144 226.001 230.134 225.951 230.134H216.873C216.824 230.134 216.774 230.144 216.729 230.163C216.683 230.182 216.641 230.209 216.606 230.245C216.571 230.28 216.543 230.321 216.524 230.367C216.505 230.413 216.495 230.462 216.495 230.511V232.414H210.821V230.511C210.821 230.462 210.812 230.413 210.793 230.367C210.774 230.321 210.746 230.28 210.711 230.245C210.675 230.209 210.634 230.182 210.588 230.163C210.542 230.144 210.493 230.134 210.443 230.134H201.365C201.265 230.134 201.169 230.174 201.098 230.245C201.027 230.315 200.987 230.411 200.987 230.511V232.414H195.313V230.511C195.313 230.462 195.303 230.413 195.284 230.367C195.265 230.321 195.237 230.28 195.202 230.245C195.167 230.21 195.126 230.182 195.08 230.163C195.034 230.144 194.985 230.134 194.935 230.134H185.857C185.757 230.134 185.66 230.174 185.589 230.245C185.518 230.315 185.479 230.411 185.479 230.511V232.414H168.079C166.887 232.414 165.707 232.649 164.605 233.104C163.504 233.559 162.503 234.226 161.66 235.067C160.817 235.907 160.148 236.906 159.692 238.004C159.236 239.103 159.001 240.281 159.001 241.47V245.564C159.001 247.966 159.958 250.269 161.66 251.968C163.362 253.666 165.672 254.62 168.079 254.62H469.922C472.33 254.62 474.639 253.666 476.341 251.968C478.044 250.269 479 247.966 479 245.564V241.47C479 240.281 478.765 239.103 478.309 238.004C477.853 236.906 477.184 235.907 476.341 235.067C475.498 234.226 474.497 233.559 473.396 233.104C472.295 232.649 471.114 232.414 469.922 232.414Z" fill="#3F3D56"/>
<path d="M321.669 215.172C321.578 215.387 321.476 215.597 321.363 215.801C320.771 216.89 319.935 217.829 318.92 218.543C317.717 219.387 316.306 219.885 314.839 219.984C313.372 220.082 311.906 219.777 310.601 219.101C309.296 218.426 308.202 217.406 307.438 216.152C306.675 214.899 306.271 213.46 306.271 211.994V210.701H307.371C311.643 213.456 316.585 215.001 321.669 215.172Z" fill="#3F3D56"/>
<path d="M337.358 211.08V211.994C337.359 213.773 336.765 215.502 335.671 216.907C334.577 218.313 333.044 219.314 331.315 219.754C329.587 220.193 327.761 220.046 326.125 219.335C324.49 218.623 323.139 217.389 322.286 215.826C322.168 215.617 322.062 215.402 321.968 215.182C322.202 215.188 322.434 215.191 322.669 215.191C327.851 215.197 332.935 213.774 337.358 211.08Z" fill="#3F3D56"/>
<path d="M348.174 114.422C347.933 114.387 347.689 114.364 347.444 114.348C350.221 120.732 350.413 127.939 347.981 134.461C348.226 134.432 348.467 134.393 348.708 134.348C351.062 133.893 353.179 132.619 354.68 130.754C356.181 128.888 356.97 126.551 356.906 124.16C356.842 121.768 355.929 119.477 354.33 117.694C352.731 115.91 350.55 114.751 348.174 114.422Z" fill="#3F3D56"/>
<path d="M297.893 114.348C297.648 114.364 297.404 114.387 297.163 114.422C294.787 114.751 292.606 115.91 291.007 117.694C289.408 119.477 288.495 121.768 288.431 124.16C288.367 126.551 289.156 128.888 290.657 130.754C292.158 132.619 294.275 133.893 296.629 134.348C296.87 134.393 297.111 134.432 297.356 134.461C294.924 127.939 295.116 120.732 297.893 114.348Z" fill="#3F3D56"/>
<path d="M348.174 114.422C345.525 108.111 340.62 103.007 334.41 100.102C328.199 97.1976 321.129 96.6991 314.571 98.7039C308.013 100.709 302.436 105.073 298.924 110.95C295.412 116.827 294.215 123.796 295.567 130.504C296.918 137.212 300.72 143.179 306.235 147.247C311.75 151.315 318.584 153.192 325.409 152.515C332.234 151.837 338.563 148.653 343.167 143.581C347.77 138.509 350.319 131.912 350.319 125.07C350.317 121.414 349.588 117.795 348.174 114.422ZM347.981 134.46C345.629 140.767 340.996 145.966 334.994 149.036C328.992 152.106 322.055 152.824 315.549 151.048C309.043 149.272 303.439 145.131 299.84 139.44C296.241 133.749 294.908 126.921 296.103 120.299C297.297 113.676 300.934 107.74 306.296 103.658C311.658 99.5766 318.358 97.6447 325.077 98.2431C331.795 98.8414 338.046 101.927 342.598 106.891C347.151 111.856 349.676 118.341 349.676 125.07C349.675 128.276 349.101 131.455 347.981 134.46Z" fill="#3F3D56"/>
<path d="M336.815 118.816H308.522C307.03 118.816 305.599 119.407 304.543 120.46C303.488 121.512 302.896 122.94 302.896 124.428C302.896 125.917 303.488 127.345 304.543 128.397C305.599 129.45 307.03 130.041 308.522 130.041H336.815C338.307 130.041 339.738 129.45 340.794 128.397C341.849 127.345 342.442 125.917 342.442 124.428C342.442 122.94 341.849 121.512 340.794 120.46C339.738 119.407 338.307 118.816 336.815 118.816Z" fill="#3F3D56"/>
<path d="M347.981 172.998C347.878 172.809 347.772 172.623 347.663 172.44C347.66 172.433 347.656 172.43 347.653 172.424C345.124 168.104 341.511 164.515 337.171 162.008C332.831 159.501 327.911 158.163 322.896 158.126C317.881 158.088 312.942 159.352 308.564 161.793C304.187 164.234 300.521 167.769 297.926 172.05C295.331 176.331 293.897 181.212 293.764 186.213C293.631 191.214 294.804 196.164 297.168 200.576C299.531 204.989 303.005 208.712 307.246 211.381C311.488 214.05 316.353 215.573 321.363 215.801C321.669 215.817 321.977 215.826 322.286 215.826C322.415 215.833 322.54 215.833 322.669 215.833C327.837 215.84 332.912 214.456 337.358 211.827C342.188 208.976 346.089 204.794 348.592 199.784C348.595 199.778 348.599 199.774 348.602 199.768C348.698 199.576 348.792 199.38 348.885 199.181C350.818 195.056 351.745 190.532 351.588 185.981C351.431 181.43 350.195 176.981 347.981 172.998ZM348.258 199.005C348.164 199.204 348.068 199.399 347.968 199.592C345.577 204.334 341.901 208.314 337.358 211.08C332.935 213.774 327.851 215.197 322.669 215.191C322.434 215.191 322.202 215.188 321.968 215.182C321.868 215.182 321.768 215.178 321.669 215.172C316.76 215.001 311.98 213.558 307.8 210.985C303.619 208.412 300.183 204.797 297.828 200.497C295.473 196.197 294.281 191.36 294.369 186.461C294.457 181.562 295.822 176.77 298.331 172.557C300.839 168.344 304.403 164.855 308.673 162.433C312.943 160.012 317.772 158.741 322.684 158.745C327.596 158.75 332.422 160.03 336.687 162.46C340.953 164.89 344.51 168.386 347.01 172.603C347.013 172.61 347.017 172.613 347.02 172.619C347.132 172.802 347.242 172.988 347.345 173.174C349.551 177.095 350.785 181.485 350.944 185.979C351.103 190.472 350.182 194.939 348.258 199.005Z" fill="#3F3D56"/>
<path d="M344.908 173.851C344.344 173.451 343.67 173.234 342.978 173.232H330.333C329.452 173.232 328.608 173.581 327.985 174.202C327.362 174.824 327.012 175.666 327.012 176.545C327.012 177.424 327.362 178.266 327.985 178.888C328.608 179.509 329.452 179.858 330.333 179.858H342.978C343.204 179.859 343.429 179.836 343.65 179.791C343.871 179.743 344.086 179.676 344.293 179.589C344.834 179.356 345.303 178.985 345.652 178.512C346.001 178.039 346.218 177.483 346.281 176.899C346.343 176.315 346.249 175.725 346.008 175.189C345.767 174.654 345.387 174.192 344.908 173.851Z" fill="#3F3D56"/>
<path d="M331.175 178.227C332.107 178.227 332.861 177.474 332.861 176.545C332.861 175.616 332.107 174.863 331.175 174.863C330.244 174.863 329.489 175.616 329.489 176.545C329.489 177.474 330.244 178.227 331.175 178.227Z" fill="#F1F1F1"/>
<path d="M336.655 178.227C337.587 178.227 338.341 177.474 338.341 176.545C338.341 175.616 337.587 174.863 336.655 174.863C335.724 174.863 334.969 175.616 334.969 176.545C334.969 177.474 335.724 178.227 336.655 178.227Z" fill="#F1F1F1"/>
<path d="M342.135 178.227C343.066 178.227 343.821 177.474 343.821 176.545C343.821 175.616 343.066 174.863 342.135 174.863C341.204 174.863 340.449 175.616 340.449 176.545C340.449 177.474 341.204 178.227 342.135 178.227Z" fill="#42BAF2"/>
<path d="M405.642 121.109C401.257 123.733 393.444 127.02 385.461 123.642L380.3 121.458L390.642 109.894C382.389 100.817 377.824 88.9985 377.836 76.7448C377.849 64.4911 382.439 52.6818 390.71 43.622C398.981 34.5621 410.34 28.9021 422.569 27.7465C434.799 26.591 447.021 30.0229 456.85 37.3724C466.68 44.7219 473.411 55.4615 475.729 67.495C478.048 79.5284 475.789 91.9919 469.391 102.453C462.994 112.914 452.918 120.621 441.131 124.071C429.344 127.521 416.691 126.465 405.642 121.109Z" fill="white"/>
<path d="M405.669 121.733C401.455 124.2 393.429 127.611 385.246 124.148L379.377 121.665L389.902 109.895C383.353 102.547 379.131 93.4304 377.766 83.6931C376.401 73.9557 377.955 64.0333 382.233 55.1753C386.51 46.3174 393.32 38.9201 401.804 33.9151C410.287 28.91 420.066 26.521 429.908 27.0489C439.751 27.5769 449.216 30.9981 457.113 36.8818C465.01 42.7655 470.985 50.8486 474.285 60.113C477.586 69.3774 478.065 79.4089 475.661 88.9441C473.257 98.4793 468.079 107.092 460.778 113.697C453.446 120.371 444.279 124.703 434.457 126.135C424.636 127.567 414.609 126.034 405.669 121.733ZM463.403 44.066C459.095 39.3251 453.893 35.4773 448.094 32.7423C442.294 30.0072 436.012 28.4386 429.605 28.1259C423.198 27.8133 416.792 28.7627 410.753 30.92C404.713 33.0774 399.159 36.4003 394.408 40.6991C389.656 44.9978 385.8 50.1882 383.06 55.9738C380.32 61.7593 378.749 68.0267 378.437 74.418C378.125 80.8092 379.078 87.1992 381.243 93.2228C383.407 99.2465 386.739 104.786 391.05 109.525L391.383 109.891L381.223 121.252L385.676 123.136C393.579 126.48 401.4 123.006 405.358 120.638L405.614 120.485L405.883 120.615C416.087 125.561 427.698 126.809 438.724 124.145C449.75 121.481 459.502 115.071 466.307 106.016C473.111 96.9604 476.543 85.8248 476.013 74.5205C475.483 63.2162 471.025 52.4485 463.403 44.066Z" fill="#42BAF2"/>
<path opacity="0.1" d="M468.923 76.4882C468.922 65.1575 464.669 54.2377 457 45.8793C449.331 37.5208 438.803 32.3294 427.488 31.3275C428.812 31.2118 430.152 31.1492 431.506 31.1492C443.555 31.1564 455.109 35.9364 463.627 44.4383C472.145 52.9403 476.93 64.4683 476.93 76.4882C476.93 88.5081 472.145 100.036 463.627 108.538C455.109 117.04 443.555 121.82 431.506 121.827C430.154 121.827 428.817 121.764 427.495 121.648C438.808 120.645 449.334 115.453 457.002 107.095C464.669 98.7366 468.922 87.8178 468.923 76.4882Z" fill="black"/>
<path d="M433.641 67.447H401.163V70.4556H433.641V67.447Z" fill="#42BAF2"/>
<path d="M457.769 77.8545H401.163V80.863H457.769V77.8545Z" fill="#42BAF2"/>
<path d="M457.713 88.2622H401.163V91.2708H457.713V88.2622Z" fill="#42BAF2"/>
<path d="M210.566 287.188H0.551221C0.405028 287.188 0.264822 287.13 0.161448 287.027C0.0580745 286.924 0 286.784 0 286.638C0 286.493 0.0580745 286.353 0.161448 286.25C0.264822 286.147 0.405028 286.089 0.551221 286.089H210.566C210.713 286.089 210.853 286.147 210.956 286.25C211.06 286.353 211.118 286.493 211.118 286.638C211.118 286.784 211.06 286.924 210.956 287.027C210.853 287.13 210.713 287.188 210.566 287.188Z" fill="#44D2A8"/>
<path d="M129.576 68.344C129.121 66.2846 127.642 64.5783 125.939 63.3287C123.132 61.2687 119.69 60.2561 116.211 60.4671C112.732 60.6781 109.438 62.0994 106.902 64.4835C105.485 65.7321 104.463 67.3656 103.962 69.1843C103.723 70.0933 103.71 71.0468 103.925 71.9618C104.139 72.8769 104.575 73.7257 105.194 74.4344L105.427 74.5802C105.215 73.685 105.913 72.7905 106.745 72.3956C107.611 72.0785 108.515 71.8763 109.434 71.7942C110.825 71.5321 112.142 70.9753 113.298 70.1616C114.454 69.3479 115.422 68.2961 116.135 67.0773C116.664 68.5773 117.509 69.947 118.612 71.0943C119.716 72.2416 121.053 73.1398 122.534 73.7287C124.077 74.3308 128.317 75.1588 129.786 74.3943C131.661 73.4192 130.031 70.4034 129.576 68.344Z" fill="#2F2E41"/>
</g>
<defs>
<clipPath id="clip0_149_8455">
<rect width="479" height="261" fill="white" transform="translate(0 27)"/>
</clipPath>
</defs>
</svg>
